<?xml version="1.0" standalone="no"?><!DOCTYPE svg PUBLIC "-//W3C//DTD SVG 1.1//EN" "http://www.w3.org/Graphics/SVG/1.1/DTD/svg11.dtd"><svg class="icon" width="64px" height="64.00px" viewBox="0 0 1024 1024" version="1.1" xmlns="http://www.w3.org/2000/svg"><path d="M924.3 245s12.5 139.2-95.7 274c-49.7 62-109.7 89.8-152.9 106.5 0 0 155.6 37.4 236.5-131S924.3 245 924.3 245z" fill="#FFECBE" /><path d="M690.6 958.7c-2.6 0-5.3-0.9-7.5-2.6-5.2-4.1-6.1-11.7-1.9-16.9 0.7-0.9 68.1-87.5 29.4-150.8-37.3-61.1-12-86.9-9-89.6l16.2 17.8 0.4-0.4c-0.1 0.2-13.7 16 12.9 59.6 19.9 32.6 20.7 74 2.1 119.9-13.5 33.4-32.4 57.5-33.2 58.5-2.3 3-5.8 4.5-9.4 4.5zM333.4 982.1c-2.5 0-5-0.8-7.1-2.3-5.4-3.9-6.5-11.5-2.6-16.8 0.7-0.9 66.3-92.3 29.3-161.8-33.1-62.3-11.7-98.6-10.8-100.2 3.5-5.7 10.9-7.5 16.6-4 5.6 3.4 7.4 10.7 4.1 16.4-0.8 1.4-14.6 27.6 11.4 76.5 18.4 34.7 18.8 78.3 0.9 126.1-13.1 35.2-31.3 60.2-32.1 61.2-2.4 3.2-6 4.9-9.7 4.9zM827.3 607c-2.1 0-4.1-0.8-5.7-2.4l-25.4-25.4c-3.1-3.1-3.1-8.2 0-11.4 3.1-3.1 8.2-3.1 11.4 0l25.4 25.4c3.1 3.1 3.1 8.2 0 11.4-1.6 1.6-3.7 2.4-5.7 2.4zM786.5 625c-2.1 0-4.1-0.8-5.7-2.4l-18.5-18.5c-3.1-3.1-3.1-8.2 0-11.4 3.1-3.1 8.2-3.1 11.4 0l18.5 18.5c3.1 3.1 3.1 8.2 0 11.4-1.6 1.7-3.7 2.4-5.7 2.4zM751.1 647.1c-2.1 0-4.1-0.8-5.7-2.4l-23.2-23.3c-3.1-3.1-3.1-8.2 0-11.4 3.1-3.1 8.2-3.1 11.4 0l23.2 23.3c3.1 3.1 3.1 8.2 0 11.4-1.6 1.6-3.7 2.4-5.7 2.4zM859.4 582.2c-2.1 0-4.1-0.8-5.7-2.4l-29.6-29.6c-3.1-3.1-3.1-8.2 0-11.4 3.1-3.1 8.2-3.1 11.4 0l29.6 29.6c3.1 3.1 3.1 8.2 0 11.4-1.6 1.6-3.6 2.4-5.7 2.4zM882.2 546.8c-2.1 0-4.1-0.8-5.7-2.4L849 516.9c-3.1-3.1-3.1-8.2 0-11.4s8.2-3.1 11.4 0l27.5 27.5c3.1 3.1 3.1 8.2 0 11.4-1.6 1.6-3.7 2.4-5.7 2.4zM908 516.4c-2.1 0-4.1-0.8-5.7-2.4l-27.9-27.9c-3.1-3.1-3.1-8.2 0-11.4 3.1-3.1 8.2-3.1 11.4 0l27.9 27.9c3.1 3.1 3.1 8.2 0 11.4-1.6 1.6-3.6 2.4-5.7 2.4zM924 472.8c-2.1 0-4.1-0.8-5.7-2.4L894.8 447c-3.1-3.1-3.1-8.2 0-11.4 3.1-3.1 8.2-3.1 11.4 0l23.5 23.5c3.1 3.1 3.1 8.2 0 11.4-1.6 1.5-3.7 2.3-5.7 2.3zM938.9 429.2c-2.1 0-4.1-0.8-5.7-2.4l-22-22c-3.1-3.1-3.1-8.2 0-11.4 3.1-3.1 8.2-3.1 11.4 0l22 22c3.1 3.1 3.1 8.2 0 11.4-1.6 1.6-3.7 2.4-5.7 2.4zM947.9 387.3c-2.1 0-4.1-0.8-5.7-2.4L920 362.7c-3.1-3.1-3.1-8.2 0-11.4s8.2-3.1 11.4 0l22.3 22.3c3.1 3.1 3.1 8.2 0 11.4-1.7 1.6-3.7 2.3-5.8 2.3z" fill="#FFBA01" /><path d="M762.6 647.9c-1.7-5.2-3.4-10.3-4.9-14.4-7.4 3.4-15.2 7.7-24.2 3.9 4.6 12.4 14.8 41.2 11.3 47.1-2.6 4.4-26.9 8.8-47.4 8.8-15 0-28-2.3-28.9-8.8-1.3-8.9 8.1-30.7 17.6-47.8-7.5-2.6-13.6-7.6-21.3-11.2-1.4 2.5-2.8 5.1-4.2 8-18.5 36.4-16.6 49.6-15.8 54.5 0.9 6.1 5.3 20.8 26.9 26.5 7 1.8 15.7 2.8 25.9 2.8 11.2 0 23.9-1.1 34.8-3.1 18.4-3.4 28-8.4 33.4-17.4 5.7-10.4 5-23.2-3.2-48.9zM407 643.9c-1-3-2-5.8-3-8.6-7.7 2.9-15 5.8-23.2 6.7 5.5 15.3 12.3 36.5 9.1 41.7-3 4.8-30.8 9.6-54.3 9.6-17.2 0-32.1-2.6-33.1-9.6-1.1-7.3 4.6-22.4 12-37.5-8.5-0.4-16.7-1.8-23.9-5.8-14.4 30.5-12.6 42.3-11.9 47 4.6 30.1 44 30.1 57 30.1 12.6 0 26.8-1.2 39-3.4 20.1-3.5 30.1-8.5 35.8-17.7 6.7-10.9 5.8-24.7-3.5-52.5z" fill="#FFBA01" /><path d="M437.5 611.5c-33.6 14.4-67.3 21.1-99.9 21.1-117 0-218.9-86.4-243.8-213.9-20.8-107.1 12.3-214.6 81.8-282.6C225.1 87.8 285.1 66 344.4 66c81.4 0 161.5 41.1 211.1 110.8 5.4-7.1 9.3-14.5 14.3-21.3-14.3-18.8-31-35.9-49.9-51.1-50.5-40.3-112.8-62.5-175.5-62.5V66 41.9c-69.9 0-134.1 26.6-185.6 77-76.6 74.9-110.6 191.6-88.5 304.4 13.2 67.5 46.1 125.7 95.2 168.4 48.3 41.9 109.4 65 172.2 65 36.9 0 73.7-7.8 109.4-23 37.3-16 70.1-39.9 97.2-69.2-4.2-7-7.6-15.1-11.6-23.2-26.1 30-58.2 54.4-95.2 70.2z" fill="#FFBA01" /><path d="M701.1 128.3c98.9 0 200.3 65.9 226.9 163.6 24.7 91-7.2 197.6-73.5 265.8-38.1 39.2-89.6 64.9-145.8 64.9-3.3 0-6.7-0.1-10.1-0.3-88.4-4.8-152.2-58.6-178.1-138.3-23.5-72.1-25.2-153.4-2.8-226.1 7.5-24.5 18.8-45 33.4-62 40.2-47 94.7-67.6 150-67.6m0-24v24.1-24.1c-66.6 0-126.4 27-168.4 76.1-17 19.9-29.8 43.6-38.1 70.6-23.6 76.7-22.6 162.2 2.9 240.6 29.8 91.8 104.5 149.7 199.7 154.9 3.8 0.2 7.6 0.3 11.4 0.3 59.9 0 117.8-25.7 163.1-72.2 73.9-76 105.8-192.1 79.5-288.9-14.1-51.7-48.1-98.5-95.8-131.9-45.6-32-100.4-49.5-154.3-49.5zM154.1 262.2c-0.8 0-1.7-0.1-2.5-0.3-6.5-1.4-10.6-7.8-9.3-14.3 8.6-40.1 54-91.7 56-93.9 4.4-5 12-5.4 17-1s5.4 12 1 17c-0.4 0.5-43.2 49-50.4 82.9-1.3 5.7-6.3 9.6-11.8 9.6z" fill="#FFBA01" /><path d="M138.5 309.4c-0.7 0-1.3-0.1-2-0.2-6.6-1.1-11-7.3-9.9-13.9l2.5-14.8c1.1-6.6 7.3-11 13.9-9.9 6.6 1.1 11 7.3 9.9 13.9l-2.5 14.8c-1 6-6.1 10.1-11.9 10.1z" fill="#FFBA01" /></svg>