<?xml version="1.0" standalone="no"?><!DOCTYPE svg PUBLIC "-//W3C//DTD SVG 1.1//EN" "http://www.w3.org/Graphics/SVG/1.1/DTD/svg11.dtd"><svg class="icon" width="64px" height="64.00px" viewBox="0 0 1024 1024" version="1.1" xmlns="http://www.w3.org/2000/svg"><path fill="#ffffff" d="M532.18 813.865l-0.114-483.159c-4.224-104.419 44.382-147.055 132.144-162.889 67.675-12.204 136.937-15.56 215.629-23.926 0 200.82-0.265 570.658-0.265 570.658l0.265 47.711s-177.866-13.882-347.659 51.605zM548.768 847.76c121.921-19.825 245.08-39.648 379.826-61.555V234.616h29.022l0.072 575.411c-0.642 23.774-26.357 66.392-41.673 67.156l-343.943 0.117c-9.318-0.207-23.304-29.54-23.304-29.54zM491.325 813.865l0.114-483.159c4.225-104.419-44.4-147.056-132.163-162.889-67.656-12.204-136.917-15.56-215.627-23.926 0 200.82 0.282 570.658 0.282 570.658l-0.282 47.711s177.884-13.882 347.676 51.605zM471.741 847.76c-121.921-19.825-243.31-39.648-378.057-61.555 0-181.582-0.005-551.589-0.005-551.589l-30.475-0.004-0.009 575.416c0.642 23.774 27.774 66.392 43.071 67.156l342.185 0.117c9.335-0.208 23.29-29.541 23.29-29.541z" /></svg>