<?xml version="1.0" standalone="no"?><!DOCTYPE svg PUBLIC "-//W3C//DTD SVG 1.1//EN" "http://www.w3.org/Graphics/SVG/1.1/DTD/svg11.dtd"><svg class="icon" width="64px" height="64.00px" viewBox="0 0 1024 1024" version="1.1" xmlns="http://www.w3.org/2000/svg"><path fill="#515151" d="M512 1024C229.681529 1024 0 794.318471 0 512S229.681529 0 512 0 1024 229.681529 1024 512 794.313697 1024 512 1024zM512 4.773893C232.316718 4.773893 4.773893 232.316718 4.773893 512 4.773893 791.688056 232.316718 1019.226107 512 1019.226107c279.683282 0 507.226107-227.538051 507.226107-507.226107C1019.226107 232.316718 791.683282 4.773893 512 4.773893zM512 935.682984c-233.619991 0-423.682984-190.062993-423.682984-423.682984 0-233.619991 190.062993-423.682984 423.682984-423.682984 233.619991 0 423.682984 190.062993 423.682984 423.682984C935.682984 745.619991 745.619991 935.682984 512 935.682984zM512 112.18648c-220.458368 0-399.81352 179.355152-399.81352 399.81352S291.541632 911.81352 512 911.81352 911.81352 732.458368 911.81352 512 732.453594 112.18648 512 112.18648zM347.720802 431.459655c-10.345026 18.637277-19.458387 33.264485-27.349632 43.872075l-14.082984-9.996531c8.846023-11.705585 17.89255-25.71696 27.144354-42.043674L347.720802 431.459655zM332.410928 339.218499l64.084737 0L396.495664 275.138536l17.143049 0 0 24.49007 91.219543 0 0 14.694042L413.638713 314.322648l0 24.895851 72.243319 0 0 77.957669-16.737268 0 0-8.569138L349.148196 408.60703l0 8.569138-16.737268 0L332.410928 339.218499zM469.139991 353.912541 349.148196 353.912541l0 39.995674 119.996569 0L469.144765 353.912541zM381.801622 422.484737c6.258573 13.739263 11.696037 28.228028 16.326713 43.466294l-16.531991 5.71435c-4.220121-14.832485-9.051301-29.454918-14.488765-43.876848L381.801622 422.484737zM430.571711 421.052569c6.530685 13.467152 12.445538 27.550135 17.754107 42.244177l-16.121436 6.325408c-3.809566-12.245035-9.318639-26.533296-16.531991-42.860009L430.571711 421.052569zM480.162909 421.868904c10.879702 16.465156 19.592056 31.292867 26.122741 44.487907l-15.510378 8.368634c-6.802797-13.877706-15.032988-29.044364-24.690573-45.50952L480.162909 421.868904zM680.160373 476.157613l0-8.779189-144.080858 0L536.079515 397.789389l17.553604 0 0 54.083431 53.87338 0L607.506499 380.235786 516.487459 380.235786l0-15.510378 91.014266 0 0-36.735105-76.320224 0 0-15.510378 76.320224 0 0-36.529828 17.959385 0 0 36.529828 76.936056 0 0 15.510378-76.936056 0 0 36.735105 90.813762 0 0 15.510378-90.813762 0 0 71.632261 54.69449 0L680.155599 397.789389l17.553604 0 0 78.368224L680.160373 476.157613zM390.981818 706.717538l42.654732 0.410555 75.093333-1.427394c-1.494228 4.482685-3.399012 9.862862-5.709576 16.121436l-71.121455 0.811562-42.75021-0.606284c-24.49007-0.82111-41.427841-9.051301-50.818089-24.700121-5.580681 5.1749-13.744037 14.283487-24.49007 27.349632l-8.368634-16.932998c12.039758-11.638751 20.752112-19.973967 26.122741-25.00565L331.594592 614.065828l-24.284793 0 0-15.099823 40.000448 0 0 87.247664C355.678881 699.613986 370.23448 706.445427 390.981818 706.717538zM330.983534 530.398583c6.936466 8.435469 16.460382 21.291562 28.566974 38.56828l-14.488765 10.206583c-11.018145-17.276718-20.064671-30.6102-27.13958-40.000448L330.983534 530.398583zM360.371618 610.394704l67.545809 0 0-34.080821-34.38635 0c-4.081678 10.340252-8.335217 19.592056-12.755841 27.750639-3.537455-2.30579-8.297026-4.759571-14.283487-7.342247 10.612364-18.637277 18.503608-39.317781 23.673734-62.04151l15.916159 3.47062c-2.382172 8.507077-4.864597 16.531991-7.452047 24.084289l29.287832 0 0-35.508214 15.916159 0 0 35.508214 53.262322 0 0 14.07821L443.838359 576.313883l0 34.080821 63.05835 0 0 14.082984L458.737678 624.477688l0 43.671571c0 7.208578 2.993231 10.817641 8.979692 10.817641l9.796028 0c6.258573 0 9.862862-3.270117 10.817641-9.800802 0.816336-5.303795 1.565837-13.328709 2.248503-24.079515 4.215347 1.904783 9.385473 3.881175 15.505604 5.919627-1.088448 9.385473-2.24373 17.276718-3.47062 23.66896-2.176895 12.11614-9.929697 18.164662-23.263179 18.164662l-15.099823 0c-14.149818 0-21.224727-7.681193-21.224727-23.062676l0-45.304242-27.449883 0c-0.066834 6.191739-0.238695 11.700811-0.506033 16.531991-0.816336 25.440075-15.099823 44.282629-42.860009 56.52289-2.716345-3.943235-6.120131-8.502303-10.201809-13.667655 23.945846-9.934471 36.391385-24.217958 37.341389-42.855235 0.276886-4.081678 0.510807-9.595524 0.716084-16.531991l-39.690145 0L360.376392 610.394704zM514.859562 636.517445c9.929697-2.248503 19.520448-4.487459 28.772252-6.735963l0-48.569585-26.939077 0 0-14.283487 26.939077 0 0-39.79517 15.3051 0 0 39.79517 26.122741 0 0 14.283487-26.122741 0 0 44.68841c7.413855-1.900009 14.555599-3.809566 21.425231-5.709576 0.276886 5.986462 0.749501 11.018145 1.432168 15.099823-7.958079 2.105287-15.581986 4.18193-22.857399 6.225156l0 60.919646c0 15.095049-6.869632 22.647347-20.608895 22.647347-3.270117 0-9.657585-0.138443-19.186275-0.410555-0.544224-5.575907-1.427394-11.084979-2.654284-16.531991 7.752802 1.093221 13.810872 1.642219 18.164662 1.642219 5.986462 0 8.979692-3.609063 8.979692-10.827189l0-53.262322c-9.523916 2.654284-18.432 5.170126-26.7338 7.552298L514.859562 636.517445zM577.512131 676.513119l63.464131 0 0-23.673734L589.957669 652.839385l0-14.689268 51.018592 0 0-23.267953 15.510378 0 0 23.267953 52.240709 0 0 14.689268-52.240709 0 0 23.673734 61.836233 0 0 14.698816-61.836233 0 0 34.892382-15.510378 0 0-34.892382-63.464131 0L577.512131 676.513119zM587.914443 550.8022l0-14.07821 116.525949 0 0 13.672429c-8.774415 15.987767-22.041063 29.932308-39.79517 41.838396 15.032988 6.186965 32.920765 10.612364 53.672876 13.261874-3.403786 6.120131-6.263347 11.495534-8.573911 16.121436-23.807403-4.625902-44.015291-11.361865-60.609343-20.203114-17.20511 9.051301-37.618275 16.603599-61.220401 22.652121-1.632671-4.759571-3.943235-9.796028-6.936466-15.099823 20.336783-4.692737 37.990639-10.340252 52.956793-16.937772-15.715655-11.228196-27.110937-24.962685-34.181072-41.227338L587.914443 550.8022zM686.280503 550.8022l-71.116681 0c7.347021 13.672429 18.637277 24.934042 33.875543 33.775291C666.110807 574.991515 678.527702 563.729902 686.280503 550.8022z" /></svg>