<?xml version="1.0" standalone="no"?><!DOCTYPE svg PUBLIC "-//W3C//DTD SVG 1.1//EN" "http://www.w3.org/Graphics/SVG/1.1/DTD/svg11.dtd"><svg class="icon" width="64px" height="64.00px" viewBox="0 0 1024 1024" version="1.1" xmlns="http://www.w3.org/2000/svg"><path fill="#8a8a8a" d="M496.32 939.392c-55.488 0-109.376-10.848-160.064-32.352-48.992-20.672-92.928-50.304-130.688-88.064-37.76-37.76-67.392-81.76-88.128-130.72C96 637.568 85.12 583.712 85.12 528.192c0-66.432 16.288-132.384 47.072-190.816 29.76-56.448 72.992-106.016 125.056-143.328 14.464-10.368 34.56-7.008 44.896 7.424 10.336 14.432 7.04 34.496-7.424 44.8C250.72 277.888 214.208 319.68 189.12 367.328c-26.336 49.952-39.68 104.064-39.68 160.864 0 92.672 36.096 179.808 101.632 245.312 65.504 65.536 152.608 101.632 245.248 101.632 92.608 0 179.744-36.096 245.28-101.632 65.536-65.504 101.6-152.64 101.6-245.312 0-56.736-13.312-110.944-39.68-160.864-25.088-47.616-61.632-89.44-105.632-120.992-14.432-10.304-17.792-30.368-7.424-44.8 10.368-14.432 30.432-17.824 44.864-7.424 52.096 37.312 95.392 86.88 125.12 143.328 30.816 58.432 47.104 124.384 47.104 190.816 0 55.52-10.88 109.376-32.352 160.096-20.704 48.96-50.368 92.96-88.128 130.72-37.76 37.76-81.696 67.36-130.688 88.128C605.664 928.576 551.808 939.392 496.32 939.392L496.32 939.392zM505.984 493.184c-17.76 0-32.16-14.336-32.16-32.128L473.824 80.192c0-17.728 14.4-32.16 32.16-32.16s32.192 14.432 32.192 32.16l0 380.864C538.176 478.848 523.744 493.184 505.984 493.184L505.984 493.184zM505.984 493.184" /></svg>