<?xml version="1.0" standalone="no"?><!DOCTYPE svg PUBLIC "-//W3C//DTD SVG 1.1//EN" "http://www.w3.org/Graphics/SVG/1.1/DTD/svg11.dtd"><svg class="icon" width="64px" height="64.00px" viewBox="0 0 1024 1024" version="1.1" xmlns="http://www.w3.org/2000/svg"><path fill="#F64141" d="M272.489556 239.331877 258.233877 235.508805 266.244318 205.603705 236.339218 197.594287 228.3298 227.499387 272.489556 239.331877ZM572.741921 287.73426 557.790394 283.723923 549.780976 313.630047 564.732503 317.638337 572.741921 287.73426ZM213.37725 223.491097l7.476275 2.003634 8.010441-29.904077-7.476275-2.00568c-24.774243-6.632047-50.236148 8.072863-56.868195 32.837896l29.904077 8.010441C196.628798 226.182392 205.119169 221.283826 213.37725 223.491097L213.37725 223.491097zM182.396655 279.289937 181.097056 284.134269 194.414363 234.43331 192.41073 241.910609 162.506652 233.900168 164.511309 226.422869 151.27689 275.81479 152.492578 271.272333 182.396655 279.289937ZM180.399161 286.766213 150.494061 278.755772 148.490427 286.232047 178.394505 294.242488 180.399161 286.766213ZM512.398578 303.613926 520.409019 273.710872 532.868795 277.045827 512.933767 271.706215 504.923326 301.610292 474.932268 293.577339 512.398578 303.613926ZM475.552391 261.699304 468.076116 259.694647 460.066699 289.598724 452.590424 287.594067 460.599841 257.68999 281.187659 209.613018 273.178241 239.518119 467.542974 291.595194 475.552391 261.699304ZM640.019187 305.765939 647.494439 307.770596 639.486044 337.675696 714.240609 357.704868 722.249003 327.799768 759.630379 337.813842 751.618914 367.718943 724.106304 360.342951 759.096213 369.715413 767.107677 339.812359 774.581905 341.815993 766.571465 371.72007 765.938038 371.550201 893.648698 405.77263 901.665279 375.868553 662.440849 311.771723 654.429385 341.6758 646.955156 339.672166 654.964574 309.767066 590.193385 292.415886 595.16256 293.747207 587.152119 323.652308 579.67789 321.647651 587.686285 291.742551 580.21001 289.737894 572.200592 319.642994 564.724317 317.638337 632.00056 335.662853 640.019187 305.765939ZM888.960932 572.771085 918.867056 580.782549 906.843208 625.638153 876.946294 617.627712 868.930737 647.530766 898.835837 655.543254 897.656989 659.938354 922.874323 565.837162 892.969223 557.826721 888.960932 572.771085ZM898.984217 535.397896 928.891364 543.408337 925.258627 556.959981 930.889881 535.932062 900.98478 527.922644 898.984217 535.397896ZM834.878177 774.612093 864.78123 782.63072 892.820843 677.972079 862.921883 669.960615 834.878177 774.612093ZM864.928586 662.486386 894.836757 670.495804 894.219703 672.802336 896.835274 663.019529 866.937336 655.008065 864.928586 662.486386ZM924.085918 381.8815l-8.007371 29.896914c8.258081 2.214435 13.155624 10.704806 10.945283 18.961864l-16.797571 62.664202 0.766456-2.863211 29.906124 8.010441 16.031115-59.802014C963.562001 413.976476 948.859138 388.514571 924.085918 381.8815L924.085918 381.8815zM176.390871 301.718763 146.485771 293.708322 140.479987 316.137147 170.385087 324.147588 176.390871 301.718763ZM909.000338 498.017544 906.991588 505.493819 936.899758 513.503237 939.390485 504.216733 938.906461 506.026962 909.000338 498.017544ZM148.344095 406.376381 118.438994 398.36594 110.428553 428.272064 140.333654 436.281481 148.344095 406.376381ZM160.362826 361.519754 130.457726 353.509313 120.443651 390.890688 150.347728 398.900106 160.362826 361.519754ZM830.878073 789.56362c-2.214435 8.258081-10.703783 13.157671-18.961864 10.943236l-119.609145-32.04688-8.011464 29.904077 10.818393 2.902096-3.342118-0.89744 8.009418-29.906124 7.475252 2.00568-8.008394 29.904077 104.657618 28.039613c24.77322 6.640234 50.235125-8.064676 56.866149-32.829709l2.00875-7.477298-29.90817-8.008394L830.878073 789.56362 830.878073 789.56362zM138.328997 443.757756 108.42492 435.747315 72.367703 570.310034 102.27178 578.319451 138.328997 443.757756ZM656.402319 758.838851 662.40094 760.448512 654.391523 790.354636 646.915247 788.349979 654.925688 758.444878 536.616142 726.745922 550.267047 730.406289 542.256606 760.309342 527.304056 756.301052 535.31552 726.395952 499.173368 716.714452 505.41042 718.386534 497.399979 748.290611 491.828077 746.796584 567.819818 767.160377 564.677245 766.31615 572.687686 736.412073 580.163961 738.415706 572.154543 768.319783 579.629795 770.32444 587.641259 740.420363 595.115488 742.42502 587.10607 772.329097 584.328817 771.586177 661.859611 792.358269 669.870052 762.454192 691.407578 768.227686 656.402319 758.838851ZM445.616592 702.359512l-8.009418 29.904077-29.9051-8.010441 8.009418-29.9051-74.752518-20.028149-8.010441 29.9051-7.476275-2.00568 8.009418-29.904077 4.558829 1.221828-228.827639-61.310368c-8.257058-2.212388-13.155624-10.704806-10.942213-18.961864l2.003634-7.476275-29.904077-8.008394-2.004657 7.475252c-6.640234 24.772196 8.064676 50.236148 32.837896 56.877405l371.384425 99.510388-27.51261-7.374968 8.009418-29.906124 29.9051 8.011464-8.009418 29.904077 14.950504 4.00829 8.010441-29.904077L445.616592 702.359512 445.616592 702.359512zM116.155998 646.130883 108.679723 644.12725 116.689141 614.223173 124.166439 616.226806 116.155998 646.130883ZM183.433264 664.157445 131.108548 650.133034 139.117966 620.228957 191.443705 634.252345 183.433264 664.157445ZM310.519708 698.210006 318.529125 668.305929 326.006424 670.308539 317.995983 700.214662 310.519708 698.210006ZM355.368148 710.228737 347.89392 708.22408 355.903338 678.320003 363.379613 680.32466 355.368148 710.228737ZM259.173273 399.075091l15.47239 4.146437-6.604418 24.6494 107.58939 28.828582 12.389168-46.239114-129.71941-34.758642 3.567245-13.314237 144.831596 38.807864-22.464641 83.841523-15.113209-4.049223 2.940982-10.975982-107.590414-28.828582-14.028505 52.355415c-2.957355 11.035334 0.782829 17.949814 11.217483 20.745487l88.699158 23.76731c10.313903 2.762927 17.547655 0.717338 21.699208-6.14086 4.118807-6.737448 8.358365-16.07921 12.715603-28.025287 4.13211 3.294023 8.806573 6.473435 14.026458 9.543354-5.021364 12.024871-9.488095 21.49864-13.400195 28.41926-7.229658 12.588713-19.120476 16.666588-35.672454 12.231579l-95.714945-25.6461c-18.351973-4.91801-24.987091-16.85283-19.909445-35.802414L259.173273 399.075091zM402.58145 554.7435l105.971543 28.3947c14.94027-14.508435 27.937283-28.701692 38.983873-42.582841l11.746532 10.860349c-12.166087 12.297071-24.217564 24.171516-36.157501 35.627429l44.618197 11.955286-3.422959 12.773931-165.160597-44.254923L402.58145 554.7435zM528.222985 466.539622l-4.298909 3.089361c15.435551 27.79095 38.134529 50.072419 68.093864 66.840314-5.069459 4.040013-9.592472 7.971555-13.573133 11.789511-12.299117-8.31027-23.393803-17.516956-33.283034-27.624151l-2.556219 9.535167-84.019579-22.51376 2.795673-10.434653c-14.075577 4.071735-29.057803 7.448646-44.945655 10.132778-1.714038-5.600555-3.603061-10.543124-5.669116-14.823614 38.054711-4.329609 71.329559-14.56881 99.82659-30.716582L528.222985 466.539622zM472.049614 405.593552l15.47239 4.146437c-4.605901 5.194302-9.191336 10.07138-13.754259 14.633279l52.175313 13.980409-3.230578 12.053524-59.551304-15.956414c-10.946306 9.665127-21.922289 17.523095-32.926924 23.571858-1.708921-4.184299-3.818979-8.54256-6.332219-13.072737C441.470155 435.517071 457.51969 422.398286 472.049614 405.593552zM431.420265 519.083326l13.105482-2.851954c4.047176 13.68365 7.337105 27.549449 9.872858 41.597397l-14.066367 3.559059C438.1659 546.922371 435.194218 532.822235 431.420265 519.083326zM474.167858 470.37395c-3.270487-7.946996-6.681166-15.609513-10.231015-22.989597l11.234879-4.50971c4.015454 6.605442 7.974625 13.899568 11.876492 21.887496L474.167858 470.37395zM512.423137 476.575186c-14.408151 7.709589-30.362518 14.233166-47.861054 19.571754l76.82369 20.584827C529.994328 504.553401 520.338411 491.166509 512.423137 476.575186zM484.961692 524.366655l13.329587-0.092098c1.172709 14.32731 1.700735 28.674063 1.581008 43.040259l-14.375405 0.38988C486.123145 551.932478 485.945089 537.486464 484.961692 524.366655zM550.493198 426.612261l14.933107 4.001127c-4.247744 5.290493-8.531304 10.249435-12.854772 14.873756l57.571207 15.427364-3.229554 12.053524-64.590064-17.306154c-4.586458 4.169973-8.760524 7.743358-12.515035 10.723226-3.762697-3.707438-7.500834-7.023974-11.218506-9.94756C530.132474 448.860984 540.766672 438.919565 550.493198 426.612261zM562.909995 496.851998c-3.670599-7.410783-8.603959-15.867386-14.799054-25.370831l10.854209-5.960759c6.235005 8.870018 11.549034 17.107633 15.937994 24.710798L562.909995 496.851998zM599.464539 550.420031l42.279942 11.329023 5.978155-22.310122 14.392802 3.856841-5.978155 22.310122 41.200354 11.039427-3.567245 13.314237-41.200354-11.040451-8.484232 31.665187c14.634302 1.992377 29.721929 3.979638 45.260833 5.956665-1.125637 4.199649-2.13871 8.940626-3.040243 14.226003-35.069727-4.897543-70.431096-9.422603-106.084107-13.577227l-0.088004-16.22145c15.709797 2.536776 32.074509 5.02648 49.098231 7.467065l8.942673-33.374108-42.279942-11.329023L599.464539 550.420031zM692.005188 501.55409c5.801123 16.72594 10.843976 33.887808 15.128559 51.489698-5.13802 0.937348-10.396791 2.100848-15.782451 3.484358-0.910743-4.999874-1.896186-9.955746-2.958378-14.868639-26.523073-4.40738-51.709709-8.520047-75.561953-12.341073l-2.476401-16.668635c7.953136-1.854231 15.541975-6.183839 22.76447-12.989849 6.481621-5.719258 13.099343-12.30321 19.850094-19.74981l-33.553187-8.990768 3.567245-13.313214 103.271038 27.671223-3.566222 13.313214L669.973406 484.466923c-13.002129 12.779048-25.752524 24.145933-38.256302 34.100656 17.429974 3.319605 35.239596 6.420223 53.429887 9.302877-2.110057-7.956206-4.449335-15.782451-7.014764-23.476691L692.005188 501.55409zM777.904581 487.547075l14.933107 4.001127-40.783869 152.208611c-4.0175 14.991436-13.282514 20.543895-27.795043 16.654308-4.919033-1.316995-13.659091-3.722788-26.220175-7.217379 0.599657-5.110391 1.14508-10.748808 1.641383-16.915251 10.296507 3.786233 18.325367 6.452969 24.081465 7.995091 7.525394 2.14485 12.347213-0.741897 14.46955-8.65717L777.904581 487.547075zM733.655797 496.516354l14.573927 3.904936-30.709419 114.605178-14.57188-3.903913L733.655797 496.516354z" /></svg>