<?xml version="1.0" standalone="no"?><!DOCTYPE svg PUBLIC "-//W3C//DTD SVG 1.1//EN" "http://www.w3.org/Graphics/SVG/1.1/DTD/svg11.dtd"><svg class="icon" width="64px" height="64.00px" viewBox="0 0 1024 1024" version="1.1" xmlns="http://www.w3.org/2000/svg"><path d="M512 173.886792c-170.737509 0-309.132075 138.413887-309.132075 309.132076 0 136.96483 89.165283 252.928 212.528301 293.520906V966.037736h38.64151v57.962264h115.924528v-57.962264h38.64151v-189.497962c123.363019-40.592906 212.528302-156.556075 212.528301-293.520906 0-170.718189-138.394566-309.132075-309.132075-309.132076z" fill="#EFCE4A" /><path d="M512 0a19.320755 19.320755 0 0 0-19.320755 19.320755v77.283019a19.320755 19.320755 0 1 0 38.64151 0V19.320755a19.320755 19.320755 0 0 0-19.320755-19.320755zM975.698113 463.698113h-77.283019a19.320755 19.320755 0 1 0 0 38.64151h77.283019a19.320755 19.320755 0 1 0 0-38.64151zM125.584906 463.698113h-77.283019a19.320755 19.320755 0 1 0 0 38.64151h77.283019a19.320755 19.320755 0 1 0 0-38.64151zM826.232755 141.466566l-54.639095 54.639094a19.301434 19.301434 0 1 0 27.319548 27.319548l54.639094-54.639095a19.301434 19.301434 0 1 0-27.319547-27.319547zM225.086792 742.612528l-54.639094 54.639095a19.301434 19.301434 0 1 0 27.319547 27.319547l54.639095-54.639095a19.301434 19.301434 0 1 0-27.319548-27.319547zM798.913208 742.612528a19.301434 19.301434 0 1 0-27.319548 27.319547l54.639095 54.639095a19.262792 19.262792 0 0 0 27.319547 0 19.301434 19.301434 0 0 0 0-27.319547l-54.639094-54.639095zM197.767245 141.466566a19.301434 19.301434 0 1 0-27.319547 27.319547l54.639094 54.639095a19.262792 19.262792 0 0 0 27.319548 0 19.301434 19.301434 0 0 0 0-27.319548l-54.639095-54.639094z" fill="#EFCE4A" /><path d="M299.471698 502.339623a19.320755 19.320755 0 0 1-19.320755-19.320755c0-127.845434 104.003623-231.849057 231.849057-231.849057a19.320755 19.320755 0 1 1 0 38.64151c-106.534642 0-193.207547 86.672906-193.207547 193.207547a19.320755 19.320755 0 0 1-19.320755 19.320755z" fill="#F7E6A1" /><path d="M415.396226 830.792453v135.245283h38.64151v57.962264h115.924528v-57.962264h38.64151v-135.245283z" fill="#556080" /></svg>