<?xml version="1.0" standalone="no"?><!DOCTYPE svg PUBLIC "-//W3C//DTD SVG 1.1//EN" "http://www.w3.org/Graphics/SVG/1.1/DTD/svg11.dtd"><svg class="icon" width="64px" height="64.00px" viewBox="0 0 1024 1024" version="1.1" xmlns="http://www.w3.org/2000/svg"><path fill="#8a8a8a" d="M512 1024c-281.6 0-512-230.4-512-512s230.4-512 512-512 512 230.4 512 512S793.6 1024 512 1024L512 1024zM512 51.2C256 51.2 51.2 256 51.2 512S256 972.8 512 972.8c256 0 460.8-204.8 460.8-460.8S768 51.2 512 51.2L512 51.2zM768 313.6 710.4 256 512 460.8 313.6 256 256 313.6 460.8 512 256 710.4 313.6 768 512 563.2l198.4 198.4 51.2-51.2L563.2 512 768 313.6z" /></svg>