<?xml version="1.0" standalone="no"?><!DOCTYPE svg PUBLIC "-//W3C//DTD SVG 1.1//EN" "http://www.w3.org/Graphics/SVG/1.1/DTD/svg11.dtd"><svg class="icon" width="64px" height="64.00px" viewBox="0 0 1024 1024" version="1.1" xmlns="http://www.w3.org/2000/svg"><path fill="#F64141" d="M271.841803 239.331877 257.586125 235.508805 265.596566 205.603705 235.692488 197.594287 227.682048 227.499387 271.841803 239.331877ZM572.095191 287.73426 557.143665 283.723923 549.134247 313.630047 564.085774 317.638337 572.095191 287.73426ZM212.729497 223.491097l7.476275 2.003634 8.010441-29.904077-7.476275-2.00568c-24.77322-6.632047-50.236148 8.072863-56.868195 32.837896l29.904077 8.010441C195.982068 226.182392 204.471416 221.283826 212.729497 223.491097L212.729497 223.491097zM181.748902 279.289937 180.449303 284.134269 193.767634 234.43331 191.764 241.910609 161.8589 233.900168 163.863557 226.422869 150.629137 275.81479 151.844825 271.272333 181.748902 279.289937ZM179.752432 286.766213 149.847332 278.755772 147.843698 286.232047 177.747775 294.242488 179.752432 286.766213ZM511.752872 303.613926 519.762289 273.710872 532.223089 277.045827 512.287037 271.706215 504.276596 301.610292 474.285538 293.577339 511.752872 303.613926ZM474.904639 261.699304 467.428364 259.694647 459.418946 289.598724 451.942671 287.594067 459.953112 257.68999 280.540929 209.613018 272.531512 239.518119 466.895221 291.595194 474.904639 261.699304ZM639.373481 305.765939 646.847709 307.770596 638.839315 337.675696 713.593879 357.704868 721.602274 327.799768 758.983649 337.813842 750.972185 367.718943 723.459574 360.342951 758.449483 369.715413 766.460947 339.812359 773.936199 341.815993 765.924735 371.72007 765.291308 371.550201 893.001969 405.77263 901.018549 375.868553 661.79412 311.771723 653.783679 341.6758 646.308427 339.672166 654.317845 309.767066 589.546655 292.415886 594.516854 293.747207 586.505389 323.652308 579.031161 321.647651 587.039555 291.742551 579.56328 289.737894 571.553862 319.642994 564.077587 317.638337 631.354853 335.662853 639.373481 305.765939ZM888.314203 572.771085 918.22135 580.782549 906.197502 625.638153 876.299565 617.627712 868.284007 647.530766 898.189108 655.543254 897.010259 659.93733 922.228617 565.836139 892.322493 557.825698 888.314203 572.771085ZM898.337487 535.396873 928.244634 543.407314 924.611897 556.959981 930.244174 535.932062 900.338051 527.922644 898.337487 535.396873ZM834.231447 774.61107 864.134501 782.629697 892.174114 677.971056 862.275153 669.959591 834.231447 774.61107ZM864.28288 662.485363 894.190027 670.494781 893.572974 672.801313 896.188544 663.018505 866.29163 655.008065 864.28288 662.485363ZM923.439188 381.8815l-8.007371 29.896914c8.258081 2.214435 13.155624 10.704806 10.945283 18.961864l-16.797571 62.664202 0.766456-2.863211 29.906124 8.010441 16.031115-59.802014C962.915271 413.976476 948.212408 388.514571 923.439188 381.8815L923.439188 381.8815zM175.744141 301.718763 145.839041 293.708322 139.833257 316.137147 169.737334 324.147588 175.744141 301.718763ZM908.353608 498.017544 906.344858 505.493819 936.253028 513.503237 938.743756 504.216733 938.260755 506.026962 908.353608 498.017544ZM147.696342 406.376381 117.791242 398.36594 109.781824 428.272064 139.685901 436.281481 147.696342 406.376381ZM159.716096 361.519754 129.810996 353.509313 119.795898 390.890688 149.700999 398.900106 159.716096 361.519754ZM830.231343 789.562597c-2.214435 8.258081-10.703783 13.157671-18.961864 10.943236l-119.609145-32.04688-8.011464 29.904077 10.818393 2.902096-3.342118-0.89744 8.009418-29.906124 7.475252 2.00568-8.008394 29.904077 104.657618 28.039613c24.77322 6.640234 50.235125-8.064676 56.866149-32.829709l2.00875-7.477298-29.90817-8.008394L830.231343 789.562597 830.231343 789.562597zM137.681244 443.757756 107.777167 435.747315 71.71995 570.310034 101.62505 578.319451 137.681244 443.757756ZM655.75559 758.837828 661.755234 760.447489 653.744793 790.353612 646.268518 788.348955 654.278959 758.443855 535.969413 726.744899 549.621341 730.405265 541.609877 760.308319 526.657326 756.300029 534.668791 726.394928 498.525616 716.713428 504.764714 718.385511 496.752226 748.289588 491.181347 746.795561 567.173089 767.159354 564.031539 766.315126 572.040956 736.411049 579.517231 738.414683 571.507814 768.31876 578.983065 770.323417 586.99453 740.41934 594.469781 742.423997 586.460364 772.329097 583.682088 771.585153 661.212882 792.357246 669.223323 762.453169 690.760848 768.226662 655.75559 758.837828ZM444.968839 702.358489l-8.009418 29.904077-29.9051-8.010441 8.010441-29.9051-74.752518-20.028149-8.010441 29.9051-7.476275-2.00568 8.010441-29.904077 4.558829 1.221828L108.566136 612.224656c-8.257058-2.212388-13.156648-10.703783-10.943236-18.960841l2.003634-7.476275-29.904077-8.009418-2.004657 7.475252c-6.640234 24.77322 8.064676 50.237171 32.837896 56.878428l371.384425 99.509365-27.51261-7.374968 8.010441-29.906124 29.9051 8.011464-8.010441 29.904077 14.951527 4.00829 8.010441-29.904077L444.968839 702.358489 444.968839 702.358489zM115.508245 646.130883 108.03197 644.12725 116.042411 614.223173 123.518686 616.226806 115.508245 646.130883ZM182.786535 664.156422 130.460796 650.133034 138.471237 620.228957 190.795952 634.252345 182.786535 664.156422ZM309.871955 698.208982 317.882396 668.304905 325.358671 670.307516 317.349253 700.213639 309.871955 698.208982ZM354.721419 710.227714 347.246167 708.223057 355.256608 678.31898 362.73186 680.323637 354.721419 710.227714ZM402.199757 541.213345c-4.452405 3.177366-8.998955 6.714935-13.643742 10.614755-27.379581-24.242124-46.204321-51.140751-56.474222-80.696903l-20.150946 75.204819-14.033621-3.759627 20.10285-75.024717c-24.707728 19.283182-54.69674 33.809013-89.967034 43.577494-1.412163-3.849678-3.573385-8.734942-6.484691-14.657838 37.144992-8.366551 68.384483-22.042016 93.718475-41.029462l-74.30431-19.909445 3.567245-13.314237 79.881328 21.403472 9.0624-33.82334-69.267597-18.560728 3.567245-13.314237 69.267597 18.560728 8.243755-30.765701 14.033621 3.76065-8.243755 30.765701 69.986981 18.753109-3.567245 13.313214-69.986981-18.753109-9.0624 33.824363 79.882352 21.404496-3.567245 13.314237-74.844615-20.054755C352.315626 493.00846 373.077485 519.398504 402.199757 541.213345zM412.193365 551.410592l105.971543 28.3947c14.94027-14.508435 27.937283-28.700669 38.983873-42.582841l11.746532 10.860349c-12.166087 12.298094-24.217564 24.171516-36.157501 35.627429l44.618197 11.95631-3.422959 12.772908-165.16162-44.2539L412.193365 551.410592zM537.835923 463.207737l-4.298909 3.089361c15.435551 27.79095 38.134529 50.072419 68.093864 66.840314-5.069459 4.041036-9.592472 7.972579-13.573133 11.789511-12.299117-8.31027-23.393803-17.516956-33.283034-27.624151l-2.556219 9.535167-84.020602-22.51376 2.795673-10.434653c-14.075577 4.071735-29.05678 7.448646-44.944632 10.132778-1.714038-5.600555-3.603061-10.543124-5.67014-14.823614 38.054711-4.329609 71.330582-14.56881 99.82659-30.716582L537.835923 463.207737zM481.661529 402.260643l15.47239 4.146437c-4.605901 5.194302-9.191336 10.07138-13.755282 14.633279l52.176336 13.980409-3.230578 12.053524-59.552328-15.956414c-10.946306 9.665127-21.922289 17.523095-32.926924 23.571858-1.707898-4.184299-3.818979-8.54256-6.332219-13.072737C451.083094 432.185186 467.131605 419.065378 481.661529 402.260643zM441.03218 515.751441l13.105482-2.851954c4.047176 13.68365 7.337105 27.548426 9.872858 41.597397l-14.066367 3.560082C447.777815 543.589462 444.807157 529.489326 441.03218 515.751441zM483.779773 467.042065c-3.270487-7.946996-6.681166-15.609513-10.231015-22.989597l11.234879-4.50971c4.015454 6.605442 7.973602 13.899568 11.876492 21.887496L483.779773 467.042065zM522.035052 473.243301c-14.408151 7.709589-30.362518 14.233166-47.861054 19.571754l76.824713 20.584827C539.606243 501.220493 529.951349 487.833601 522.035052 473.243301zM494.573607 521.03477l13.33061-0.092098c1.172709 14.326287 1.700735 28.675086 1.581008 43.039235l-14.376429 0.38988C495.73506 548.600593 495.557004 534.154579 494.573607 521.03477zM560.106136 423.279353l14.933107 4.001127c-4.247744 5.290493-8.531304 10.249435-12.854772 14.873756l57.571207 15.427364-3.229554 12.053524-64.590064-17.306154c-4.586458 4.169973-8.760524 7.743358-12.515035 10.723226-3.762697-3.707438-7.500834-7.023974-11.218506-9.94756C539.744389 445.529099 550.379611 435.58768 560.106136 423.279353zM572.52191 493.520113c-3.670599-7.410783-8.603959-15.867386-14.799054-25.370831l10.854209-5.960759c6.235005 8.870018 11.549034 17.107633 15.937994 24.710798L572.52191 493.520113zM609.077477 547.087123l42.279942 11.330046 5.978155-22.311145 14.392802 3.857864-5.978155 22.309098 41.200354 11.040451-3.567245 13.313214-41.200354-11.040451-8.484232 31.66621c14.634302 1.992377 29.721929 3.979638 45.260833 5.955642-1.125637 4.199649-2.13871 8.940626-3.040243 14.226003-35.069727-4.897543-70.431096-9.422603-106.084107-13.577227l-0.088004-16.22145c15.709797 2.536776 32.074509 5.02648 49.098231 7.467065l8.942673-33.373085-42.279942-11.330046L609.077477 547.087123zM701.618127 498.222205c5.801123 16.72594 10.843976 33.887808 15.128559 51.489698-5.13802 0.937348-10.396791 2.100848-15.782451 3.485381-0.910743-5.000897-1.896186-9.956769-2.958378-14.869662-26.523073-4.40738-51.709709-8.520047-75.561953-12.340049l-2.476401-16.668635c7.953136-1.854231 15.541975-6.183839 22.76447-12.989849 6.481621-5.719258 13.099343-12.30321 19.850094-19.74981l-33.553187-8.990768 3.567245-13.313214 103.271038 27.671223-3.566222 13.313214-52.716642-14.124695c-13.002129 12.779048-25.752524 24.145933-38.256302 34.100656 17.429974 3.319605 35.239596 6.420223 53.429887 9.302877-2.110057-7.956206-4.449335-15.782451-7.014764-23.476691L701.618127 498.222205zM787.517519 484.214167l14.933107 4.001127-40.783869 152.208611c-4.0175 14.992459-13.282514 20.544919-27.795043 16.655332-4.919033-1.316995-13.659091-3.723811-26.220175-7.218402 0.599657-5.110391 1.14508-10.748808 1.641383-16.915251 10.296507 3.786233 18.325367 6.452969 24.081465 7.995091 7.525394 2.14485 12.347213-0.741897 14.46955-8.65717L787.517519 484.214167zM743.268736 493.184469l14.573927 3.904936-30.709419 114.606201-14.57188-3.904936L743.268736 493.184469z" /></svg>