<?xml version="1.0" standalone="no"?><!DOCTYPE svg PUBLIC "-//W3C//DTD SVG 1.1//EN" "http://www.w3.org/Graphics/SVG/1.1/DTD/svg11.dtd"><svg class="icon" width="64px" height="64.00px" viewBox="0 0 1024 1024" version="1.1" xmlns="http://www.w3.org/2000/svg"><path fill="#8a8a8a" d="M769.741155 818.878273c19.076474-10.622942 36.922934-21.412682 51.501978-32.199353 1.639337-1.25969 8.851599-6.293333 10.637268-7.753591 8.085142-6.687306 13.33368-16.769942 13.33368-28.096918 0-10.790764-4.701069-20.551058-12.245905-27.00812L684.33602 601.314165c-6.121418-5.01113-14.028505-8.073886-22.679535-8.073886-9.724479 0-18.550495 3.755534-25.043373 9.865695-2.526543 2.52552-24.843828 25.39539-24.843828 25.39539-15.477506 15.514345-40.525995 15.514345-56.002478 0L404.097478 476.679563c-15.487739-15.476483-15.487739-40.704051 0-56.181557l24.677029-24.690332c6.482645-6.467295 10.263761-15.476483 10.263761-25.175379 0-9.750061-3.78214-18.398022-9.907651-24.880667L301.805744 191.930287c-6.6607-7.942903-16.746406-13.145391-27.916816-13.145391-11.878538 0-22.320355 5.753027-28.993335 14.580067l-2.179642 2.87242c-27.734668 37.474496-63.931055 96.93268-63.931055 152.757103 0 153.833621 342.93856 496.220618 495.312946 496.220618 2.87242 0 5.731538-0.203638 8.457626-0.203638C722.086809 841.831031 752.133126 828.708152 769.741155 818.878273L769.741155 818.878273zM769.741155 818.878273" /></svg>