<?xml version="1.0" standalone="no"?><!DOCTYPE svg PUBLIC "-//W3C//DTD SVG 1.1//EN" "http://www.w3.org/Graphics/SVG/1.1/DTD/svg11.dtd"><svg class="icon" width="64px" height="64.00px" viewBox="0 0 1024 1024" version="1.1" xmlns="http://www.w3.org/2000/svg"><path d="M926.5 251c0-10.2-7.8-18.5-17.5-18.5H806.5v-2c0.1-6.4 0.3-12.7 0.3-18.9 0-19.6-0.8-40.2-2.4-62.9-0.7-9.6-8.4-17.1-17.5-17.1H235.4c-9.1 0-16.8 7.5-17.5 17.1-1.6 19.9-2.5 43-2.5 66.3 0 1.7 0.1 6.9 0.2 12.1l0.1 5.5H115c-9.6 0-17.5 8.3-17.5 18.6-6.4 134.8 48.8 283 186.7 310 1 0.3 2.1 0.4 3.3 0.4 1.9 0 3.7-0.4 5.5-1l1.3-0.5 0.8 1.5c21.6 39.9 46.7 73.2 74.5 99.1 34.9 32.5 72.9 52.2 113 58.6l11.1 2v134.1h-137c-9.6 0-17.5 8.3-17.5 18.5 0 9.8 7.4 17.9 16.6 18.4h310.1c9.6 0 17.5-8.3 17.5-18.4 0-10.2-7.9-18.5-17.5-18.5h-137V736c-0.1-0.6 0-1.1 0-2.1v-12.7l11.1-1.9c40.1-6.4 78.1-26.1 113-58.5 27.9-26 53.1-59.6 74.9-99.8l0.9-1.6 1.6 0.7c1.9 1 4.2 1.5 6.6 1.5 1.2 0 2.3-0.2 3.3-0.5C877.7 534.2 932.9 386 926.5 251zM272 520.8c-68.6-19.3-141.3-105.7-139-249.3h0.1v-1.9h84.6l0.1 1.9c6.5 91 25.5 174 56.4 246.7l1.6 3.8-3.8-1.2z m619-249.3c2.3 145.3-71.3 231.4-140.7 249.8l-3.9 1 1.6-3.8c20.5-48.3 36-101.4 45.7-157.8 0 0 1.5-8.4 1.8-10.7 3.4-20.8 6-42.4 7.9-64l0.6-7.6 0.6-8.8h86.3l0.1 1.9z" fill="#FFCC80" /><path d="M512 272.1l38.8 78.5 86.7 12.6-62.8 61.2 14.8 86.3L512 470l-77.5 40.7 14.8-86.3-62.8-61.2 86.7-12.6z" fill="#F44336" /></svg>