<?xml version="1.0" standalone="no"?><!DOCTYPE svg PUBLIC "-//W3C//DTD SVG 1.1//EN" "http://www.w3.org/Graphics/SVG/1.1/DTD/svg11.dtd"><svg class="icon" width="64px" height="64.00px" viewBox="0 0 1024 1024" version="1.1" xmlns="http://www.w3.org/2000/svg"><path fill="#8a8a8a" d="M644 905c-16.667 0-30.333-6-41-18-6-6-13.333-12.667-22-20s-19.667-14.667-33-22-25.333-11-36-11c-15.333 0-31.833 6-49.5 18S431 875.333 421 886c-10.667 12-24.333 18-41 18-4 0-7.667-0.5-11-1.5s-6.667-2.167-10-3.5l-1 0-107-60-1-1c-9.333-6.667-15.667-15.833-19-27.5s-2.667-22.833 2-33.5c6.667-15.333 10-29.667 10-43 0-31.333-11-58-33-80s-48.667-33-80-33l-4 0c-3.333 0-6.333-0.5-9-1.5s-5.333-2.333-8-4-5-3.667-7-6-3.833-5-5.5-8-3.167-6.333-4.5-10-2.333-7.5-3-11.5c-6.667-32-10-60.333-10-85 0-6.667 0.333-14.167 1-22.5s1.333-15.833 2-22.5l4-20c0.667-6.667 1.167-11.333 1.5-14s0.833-4.667 1.5-6c0.667-6 2.167-11.667 4.5-17s5.167-9.667 8.5-13 7.167-6 11.5-8 8.5-2.667 12.5-2l4 0c31.333 0 58-11.167 80-33.5s33-48.833 33-79.5c0-14-3.333-28.667-10-44-2-5.333-3.167-10.833-3.5-16.5s0.167-11.333 1.5-17 3.667-10.833 7-15.5 7.333-8.667 12-12l2-1 112-62 1 0c2-1.333 4.167-2.333 6.5-3s4.5-1 6.5-1l8 0c16.667 0 30.333 5.333 41 16 10 11.333 23.667 22.667 41 34s33.333 17 48 17 30.5-5.667 47.5-17 30.833-22.333 41.5-33c3.333-3.333 7.167-6.167 11.5-8.5s9-4.167 14-5.5 9.833-2 14.5-2l6 0c2 0 3.833 0.167 5.5 0.5s3.333 0.833 5 1.5 3.167 1.333 4.5 2l2 1 108 60 1 1c10 6.667 16.667 15.833 20 27.5s2.667 22.833-2 33.5c-6.667 15.333-10 30-10 44 0 10 1.333 19.833 4 29.5s6.333 18.667 11 27 10.5 16 17.5 23 14.667 12.833 23 17.5 17.333 8.5 27 11.5 19.833 4.5 30.5 4.5l3 0c9.333-0.667 17.5 2.667 24.5 10s11.5 17.333 13.5 30c6 32 9 60.333 9 85s-3 53-9 85c-2 12.667-6.5 22.667-13.5 30s-15.167 11-24.5 11l-3 0c-20.667 0-39.667 5-57 15s-31 23.667-41 41-15 36.333-15 57c0 13.333 3.333 27.667 10 43 4.667 10.667 5.333 21.833 2 33.5s-10 20.833-20 27.5l-1 1-110 61-1 1c-3.333 1.333-6.667 2.333-10 3S648 905 644 905zM641 853l3 1 103-57c-8.667-22-13-43-13-63 0-44 15-81.833 45-113.5S845.667 572 889 570c0-1.333 0.167-2.5 0.5-3.5s0.5-2.5 0.5-4.5l2-6c0-2 0.167-4.333 0.5-7s0.833-5.667 1.5-9l0-8 2-10 0-8c0.667-3.333 1-6.667 1-10l0-9c0-20-2.667-45-8-75-28.667-1.333-54.833-9.333-78.5-24s-42.333-34.333-56-59S734 285.667 734 257c0-20.667 4.333-42 13-64l-101-56-1 0c-1.333 0-2.333 0.333-3 1-2 1.333-4.167 3.167-6.5 5.5S629 149.667 623 155s-12.333 10.333-19 15c-15.333 10.667-30.5 18.833-45.5 24.5S529.333 203 516 203c-27.333 0-57-11.333-89-34-14.667-10.667-27-21.333-37-32l-4-1-1 0-105 57c2 4 3.833 8.333 5.5 13s3.5 12 5.5 22 3 19.667 3 29c0 28.667-6.833 55.333-20.5 80S241 381.333 217 396s-50 22.667-78 24c-1.333 5.333-2.5 11-3.5 17s-2 15-3 27-1.5 22.333-1.5 31c0 20 2.667 45 8 75 43.333 2 80 18.833 110 50.5S294 690 294 734c0 8.667-1 18-3 28s-3.833 17.333-5.5 22-3.5 9-5.5 13l100 55 3 0 7-6c2-2.667 6.167-6.833 12.5-12.5S415 822.667 421 818c32.667-23.333 63-35 91-35 9.333 0 18.833 1.333 28.5 4s19.667 6.667 30 12 20.833 12 31.5 20C617.333 829.667 630.333 841 641 853zM512 645c-27.333 0-52.5-6.667-75.5-20s-41.167-31.667-54.5-55-20-48.5-20-75.5 6.667-52.167 20-75.5c13.333-23.333 31.5-41.667 54.5-55s48.167-20 75.5-20c41.333 0 76.667 14.667 106 44s44 64.833 44 106.5-14.667 77.167-44 106.5S553.333 645 512 645zM512 395c-27.333 0-50.667 9.667-70 29-19.333 19.333-29 42.833-29 70.5s9.667 51.167 29 70.5 42.667 29 70 29c18 0 34.667-4.5 50-13.5s27.333-21.167 36-36.5 13-32 13-50c0-27.333-9.667-50.667-29-70C562.667 404.667 539.333 395 512 395z" /></svg>