<?xml version="1.0" standalone="no"?><!DOCTYPE svg PUBLIC "-//W3C//DTD SVG 1.1//EN" "http://www.w3.org/Graphics/SVG/1.1/DTD/svg11.dtd"><svg class="icon" width="64px" height="64.00px" viewBox="0 0 1024 1024" version="1.1" xmlns="http://www.w3.org/2000/svg"><path fill="#8a8a8a" d="M567.059 351.98c0-18.484-14.957-33.441-33.441-33.441h-280.818c-18.484 0-33.441 14.957-33.441 33.441s14.957 33.441 33.441 33.441h280.818c18.484 0 33.441-14.957 33.441-33.441zM252.801 493.777c-18.484 0-33.441 14.957-33.441 33.441s14.957 33.441 33.441 33.441h130.334c18.484 0 33.441-14.957 33.441-33.441s-14.957-33.441-33.441-33.441h-130.334zM860.123 529.929c-18.484 0-33.441 14.957-33.441 33.441v168.347c0 70.833-57.607 128.439-128.441 128.439h-439.431c-70.833 0-128.439-57.607-128.439-128.439v-439.433c0-70.833 57.607-128.439 128.439-128.439h480.449c18.484 0 33.441-14.957 33.441-33.441s-14.957-33.441-33.441-33.441h-480.449c-107.703 0-195.322 87.619-195.322 195.322v439.433c0 107.703 87.619 195.322 195.322 195.322h439.431c107.703 0 195.322-87.619 195.322-195.322v-168.347c0-18.484-14.957-33.441-33.441-33.441zM944.999 196.338c-20.052-19.104-51.794-18.386-70.93 1.633l-458.57 480.286c-19.137 20.052-18.386 51.794 1.633 70.931 9.732 9.274 22.207 13.879 34.649 13.879 13.226 0 26.42-5.193 36.282-15.511l458.569-480.287c19.136-20.052 18.385-51.794-1.633-70.93z" /></svg>