<?xml version="1.0" standalone="no"?><!DOCTYPE svg PUBLIC "-//W3C//DTD SVG 1.1//EN" "http://www.w3.org/Graphics/SVG/1.1/DTD/svg11.dtd"><svg class="icon" width="64px" height="64.00px" viewBox="0 0 1024 1024" version="1.1" xmlns="http://www.w3.org/2000/svg"><path fill="#F64141" d="M880.655779 297.370735l-737.302349 0c-41.176818 0-74.599022 33.915437-74.599022 75.501578l0 353.755929 104.550171-1.566682 707.350177 0c41.09393 0 74.589812-33.834596 74.589812-75.500555L955.244568 372.872313C955.244568 331.285149 921.748686 297.370735 880.655779 297.370735L880.655779 297.370735zM927.680792 649.559982c0 26.320459-21.12718 47.688115-47.025013 47.688115L173.14699 697.248098l-76.91988 1.077541L96.22711 372.872313c0-26.322505 21.12718-47.610344 47.12632-47.610344l737.302349 0c25.897833 0 47.025013 21.288862 47.025013 47.610344L927.680792 649.559982 927.680792 649.559982zM642.916167 497.391281l-21.626553-6.353708-5.856381 0.989537-66.751287 0 0-51.568493 54.207599 0c-0.735757 9.816576-1.89721 15.264659-3.711532 17.161868-2.310625 2.064009-4.613064 2.311649-9.070586 2.311649-5.204535 0-16.761756-0.249687-29.29521-1.155313 4.615111 7.505951 8.085142 19.307741 8.573259 27.559683 13.95278 0.49221 27.481911 0.49221 35.81674-0.249687 8.91402-0.740874 17.249873-2.802836 23.521716-9.406231 6.022157-7.095605 8.408507-22.361287 9.329483-55.617715 0.155543-4.044106 0.48914-12.212136 0.48914-12.212136L515.09192 408.850735 515.09192 622.98165l33.590026 0 0-16.009625c5.52483 5.691629 10.884908 12.472056 14.19121 18.163685 12.297071-6.118348 23.01518-13.45443 32.261775-22.196535 9.153474 8.490372 19.892049 15.581883 31.68156 21.201881 5.120624-8.916067 15.684214-22.527063 23.354917-29.212322-12.378935-4.696975-23.096021-11.310603-32.593326-19.304671C630.868783 554.413995 638.954949 528.254196 642.916167 497.391281L642.916167 497.391281zM548.682969 595.174328l0-67.664076c6.427386 18.899442 14.681374 35.641755 24.663726 50.507324C566.335001 584.611761 558.002218 590.229712 548.682969 595.174328L548.682969 595.174328zM594.232374 550.454824c-5.783727-8.752338-10.895141-18.157545-15.103999-28.059056l25.825179 0C602.391195 532.544919 598.92935 541.953196 594.232374 550.454824L594.232374 550.454824zM855.807858 435.420881l-23.76117-13.861706-5.618974 1.648546-59.982116 0c4.206812-5.199419 8.334829-10.558473 12.045337-16.254196l-38.119179-8.251941c-14.202467 22.116717-39.364543 44.560892-77.729316 60.483536 7.661494 5.945409 18.399045 19.146059 23.26282 27.641547 19.304671-9.899464 35.806507-20.788465 50.247404-32.758078l68.00586 0c-10.979052 13.864776-25.179472 26.160823-41.682331 36.724413-9.818623-8.169053-20.954241-16.919345-30.024827-23.52274l-26.580379 19.556405c7.754614 6.111185 16.503882 13.948687 24.7548 21.458731-22.1116 9.900487-46.61876 17.655102-71.954799 22.855544 6.272867 7.509021 13.953803 22.12081 17.415648 31.522947 10.979052-2.558265 21.698185-5.606695 32.178887-9.162684l0 70.471005 34.003442 0 0-8.987698 78.392418 0 0 9.155521 35.145451 0L855.806835 513.896186l-66.99995 0C817.438992 493.681796 840.629157 467.684702 855.807858 435.420881L855.807858 435.420881zM820.66343 544.757055l0 39.35738L742.268966 584.114434l0-39.35738L820.66343 544.757055 820.66343 544.757055zM490.918357 503.087003l0-26.1598 20.049638 0 0-33.255405-20.049638 0 0-43.318598-34.665521 0 0 43.318598-27.224038 0 0 33.255405 27.224038 0 0 34.165124c-11.133571 2.394537-21.36561 4.458545-30.190603 6.106068l6.92676 35.152615 23.263843-5.695722 0 40.020482c0 3.797489-1.152243 4.956895-5.111414 4.956895-3.545756 0-15.185864 0-24.671912-0.415462 4.456498 9.163707 8.833179 23.514553 9.983375 32.511461 18.648732 0.245593 32.104185-0.74599 41.922808-6.108115 9.568936-5.192256 12.542664-13.942547 12.542664-30.695093L490.918357 538.1598l22.608927-5.862521-4.206812-33.500998L490.918357 503.087003 490.918357 503.087003zM198.141244 545.088606c1.161453 0.575098 2.39556 0.823761 3.721765 0.823761 0.571005 0 1.150196 0 1.805112-0.164752 2.726088-0.575098 5.036713-2.391467 6.115278-4.865821 0.984421-2.146896 1.150196-4.626367 0.330528-6.848988-0.754177-2.230808-2.393513-3.966335-4.548596-4.956895-15.012925-7.095605-25.574469-20.627806-28.956495-37.126572-5.782703-28.388561 12.285814-56.281841 40.348963-62.139246 27.804253-5.857405 55.617715 12.4608 61.47512 40.928155 0.663102 3.467985 1.067308 7.013741 1.067308 10.482749 0 4.865821 3.960195 8.824993 8.749268 8.824993 4.871961-0.080841 8.748245-4.042059 8.748245-8.91095 0-4.782933-0.496304-9.489118-1.481747-13.942547-3.710508-18.404162-14.284331-34.244942-29.867238-44.560892-15.518438-10.313903-34.002418-14.026458-52.164057-10.149151-18.142196 3.794419-33.744545 14.524808-43.976584 30.281677-10.231015 15.680121-13.788028 34.411741-9.983375 52.813856C163.899372 517.197372 178.341293 535.763217 198.141244 545.088606L198.141244 545.088606zM366.47716 521.322319c-3.463891-16.918321-19.065218-27.476795-35.640732-23.932062-2.394537 0.49835-4.624321 1.239224-6.769171 2.312672-7.009647-6.52153-16.587793-9.324366-25.834388-7.263427-2.560312 0.497327-4.943592 1.321088-7.257288 2.477424-7.016811-6.520507-16.503882-9.240455-25.915229-7.344269-0.48914 0.165776-0.985444 0.249687-1.473561 0.409322l-2.228761-10.558473c-3.38919-16.917298-18.898419-27.563776-35.328623-24.013927-16.410762 3.467985-27.057239 19.72218-23.677259 36.308951l12.70844 62.463634c-6.107091-3.301186-13.363356-4.374634-20.62883-2.803859-8.169053 1.730411-15.517415 6.515391-19.644409 12.871145-8.823969 13.613042-8.41874 33.911344 7.432273 44.555775l9.072633 5.947456 32.022321 0-31.44313-20.793582c-8.16803-5.450129-5.204535-15.767102-2.477424-19.966751 1.564635-2.486634 4.954849-4.456498 8.582469-5.284353 3.463891-0.664126 6.934946-0.167822 9.487072 1.480724l33.265638 22.038946-21.293979-104.060007c-1.399883-7.013741 3.131317-13.94357 10.149151-15.430434 6.594185-1.404999 13.205766 3.051499 14.680351 10.231015l6.189979 30.531364 1.326205 5.446036 5.194302 25.828248c0.497327 2.310625 1.823532 4.291746 3.794419 5.613858 1.89721 1.316995 4.291746 1.730411 6.520507 1.233084 4.790096-0.99056 7.846712-5.608741 6.851035-10.392698l-6.925736-33.918507c0.49835-0.160659 0.903579-0.24457 1.316995-0.409322 5.203512-0.991584 10.31595 1.239224 13.19758 6.269797l0.74599 1.323135 6.934946 33.914414c0.49528 2.307555 1.813299 4.288676 3.794419 5.608741 1.89721 1.316995 4.207835 1.814322 6.520507 1.245364 2.301416-0.424672 4.291746-1.824555 5.607718-3.801583 1.243317-1.983167 1.731434-4.372587 1.243317-6.685259l-6.685259-32.42755c0.662079-0.24764 1.233084-0.497327 1.89721-0.580215 5.028527-1.154289 10.231015 1.322112 13.113669 6.191003l7.184633 34.411741c0.994654 4.78805 5.691629 8.004301 10.314926 6.852058 2.302439-0.421602 4.290723-1.824555 5.525853-3.795443 1.325182-1.988284 1.822508-4.294816 1.325182-6.605442l-6.445806-31.604812c0.664126-0.248663 1.326205-0.497327 2.062985-0.660032 3.223415-0.579191 6.354731-0.081864 8.916067 1.648546 2.808976 1.89721 4.789073 4.950755 5.525853 8.662287l9.244548 45.061288c2.561335 13.198603 4.542456 26.891464 2.312672 38.699394l-0.820692 4.124947 17.977443 0 0.424672-2.973728c2.228761-15.093766-0.332575-31.527041-3.223415-45.635363L366.47716 521.322319 366.47716 521.322319z" /></svg>