<?xml version="1.0" standalone="no"?><!DOCTYPE svg PUBLIC "-//W3C//DTD SVG 1.1//EN" "http://www.w3.org/Graphics/SVG/1.1/DTD/svg11.dtd"><svg class="icon" width="64px" height="64.00px" viewBox="0 0 1024 1024" version="1.1" xmlns="http://www.w3.org/2000/svg"><path fill="#F64141" d="M567.160809 235.379868l21.135366 2.208295 14.158465 16.419971 7.631818-19.329231 19.334347-7.635911-16.420995-14.157441-2.203178-21.141506-17.779945 10.583033-20.708648-5.435803 5.438872 20.704554L567.160809 235.379868M567.160809 235.379868 567.160809 235.379868zM795.892257 431.943686l-0.052189 21.683858 18.425651-9.608845 19.609617 6.9022-3.125177-21.459754 12.174274-17.422811-20.36277-3.640923-12.081153-17.667382-9.458419 19.197224-19.643386 6.502088L795.892257 431.943686M795.892257 431.943686 795.892257 431.943686zM693.776532 295.692512l18.548448 10.367115 6.538927 20.676925 14.638395-14.760169 20.783349 0.61603-9.504468-19.493983 6.308683-20.295232-20.512173 2.718925-16.886599-13.156648-3.167133 21.165042L693.776532 295.692512M693.776532 295.692512 693.776532 295.692512zM448.550411 226.060619l-0.105401 20.687158 19.334347-8.80555 20.532639 6.966669-3.227508-20.525476 12.795421-16.397459-21.329794-3.871167-12.624529-17.093307-9.960863 18.131963-20.596084 5.825682L448.550411 226.060619M448.550411 226.060619 448.550411 226.060619zM448.158485 799.164279l-21.019733-2.134617-14.037714-16.297175-7.648191 19.25146-19.255553 7.653307 16.293081 14.039761 2.136663 21.014616 17.718547-10.580986 20.578688 5.344728-5.348821-20.575618L448.158485 799.164279M448.158485 799.164279 448.158485 799.164279zM329.735351 732.377176l-18.427698-10.254551-6.439666-20.551058-14.605649 14.727423-20.672832-0.554632 9.400091 19.357883-6.329149 20.209274 20.415982-2.758834 16.746406 13.046131 3.221368-21.077038L329.735351 732.377176M329.735351 732.377176 329.735351 732.377176zM234.484987 603.970668l0.121773-21.533432-18.389836 9.575076-19.519566-6.810103 3.061732 21.303188-12.178367 17.318434 20.283975 3.585665 11.990079 17.520025 9.478885-19.085684 19.585057-6.496971L234.484987 603.970668M234.484987 603.970668 234.484987 603.970668zM828.216453 193.609533C653.85224 19.244296 370.139573 19.24839 195.774337 193.612603 21.414217 367.972722 21.414217 651.684366 195.779454 826.048579c174.377516 174.377516 458.088136 174.380586 632.450303 0.020466C1002.594993 651.702786 1002.596016 367.988072 828.216453 193.609533L828.216453 193.609533M216.773603 805.053406C53.986053 642.264832 53.987077 377.391233 216.770534 214.608799c162.791643-162.791643 427.66422-162.791643 590.450746-0.004093 162.801876 162.801876 162.80597 427.678546 0.014326 590.469166C644.452149 967.858352 379.574457 967.854259 216.773603 805.053406L216.773603 805.053406M216.773603 805.053406 216.773603 805.053406zM777.165754 244.659209C630.953717 98.447173 393.042189 98.448196 246.825037 244.664326c-146.207943 146.208966-146.207943 384.118448 0.005117 530.332531 146.231479 146.230456 384.139937 146.231479 530.349927 0.021489C923.396209 628.801193 923.395186 390.889665 777.165754 244.659209L777.165754 244.659209M258.826372 763.000638c-139.599432-139.600455-139.598408-366.746802-0.004093-506.341117C398.426827 117.055996 625.571127 117.057019 765.169535 256.656451c139.613758 139.613758 139.617851 366.760105 0.013303 506.365676-51.909254 51.90823-115.925243 84.500533-183.050036 97.798397l8.549723-18.500353 20.033265-7.291057-16.07307-13.860682-1.285273-20.535709-18.597567 10.157337-20.832468-5.41636 4.584412 20.141736-11.592013 17.197684 21.425985 2.282996 13.537318 15.877619C468.57549 883.244232 346.464361 850.637604 258.826372 763.000638L258.826372 763.000638M258.826372 763.000638 258.826372 763.000638zM665.947719 355.87622c35.521005 35.519981 57.805544 82.57774 62.723553 132.478244l14.772448-1.453095c-5.253654-53.312206-29.057803-103.582123-66.997903-141.521201-78.841649-78.841649-202.904223-90.638323-294.988478-28.053939l8.345062 12.281721C475.999576 271.0206 592.140737 282.06719 665.947719 355.87622L665.947719 355.87622M665.947719 355.87622 665.947719 355.87622zM358.047164 663.779845c-35.515888-35.512818-57.782008-82.556251-62.704111-132.460848l-14.770402 1.455141c5.254677 53.312206 29.042453 103.567797 66.978461 141.502781 78.859046 78.858022 202.920596 90.654696 295.002804 28.072359l-8.344039-12.281721C548.009633 748.657978 431.87052 737.606271 358.047164 663.779845L358.047164 663.779845M358.047164 663.779845 358.047164 663.779845zM265.156544 390.862036c-0.913812 1.793856-0.540306 3.971451 1.144056 6.659677 0.052189 0.079818 0.10847 0.158612 0.168846 0.230244 0.178055 0.212848 0.394996 0.38681 0.642636 0.512676l63.826678 32.521694c0.335644 0.171915 0.711198 0.246617 1.083681 0.220011 3.1569-0.218988 5.136997-1.196245 6.049786-2.990101 0.277316-0.543376 0.421602-1.12666 0.461511-1.74576 5.452175 7.798617 11.208273 14.860453 17.245779 21.134343 0.228197 0.236384 0.508583 0.415462 0.819668 0.521886 3.629667 1.242294 6.207375 1.12973 7.887644-0.348947 1.554402-1.36816 2.012843-3.675716 1.360997-6.860245-0.077771-0.376577-0.258896-0.727571-0.527003-1.003863-18.032702-19.020192-31.42471-39.875173-39.865963-62.181201-0.577145-1.274016-1.264806-2.390443-2.046612-3.321652-0.193405-0.232291-0.408299-0.464581-0.639566-0.693802 4.219091-1.928932 8.205892-4.025687 11.863189-6.254447l15.908318 8.107655c-1.413186 5.849218-3.139503 11.613502-5.134951 17.156752-0.128937 0.358157-0.157589 0.743944-0.079818 1.115404 0.818645 4.001127 2.570545 5.990434 4.992711 6.106068 1.704828 0.081864 3.511987-0.842181 5.522784-2.821255 0.213871-0.209778 0.379647-0.464581 0.48607-0.74599 2.161223-5.746888 3.715625-10.946306 4.634554-15.500019l24.559349 12.515035c0.334621 0.170892 0.709151 0.245593 1.083681 0.220011 3.152806-0.215918 5.132904-1.196245 6.046716-2.989077 0.915859-1.794879 0.542352-3.972475-1.1328-6.65763-0.198521-0.319272-0.480954-0.576121-0.815575-0.74599l-45.499263-23.190165c3.225461-2.201132 6.680143-4.835122 10.307763-7.857968 0.304945-0.254803 0.530073-0.591471 0.648776-0.968048 0.940418-2.987031 0.775666-5.180999-0.505513-6.707772-2.084475-2.483564-5.989411-1.676176-7.272637-1.410116-0.348947 0.071631-0.673335 0.233314-0.942465 0.468674-6.946202 6.080485-14.134929 11.172457-21.453614 15.241123 0.5137-0.438998 0.928139-0.942465 1.222851-1.52268 0.862647-1.689479 0.697895-3.77293-0.490164-6.197142-0.197498-0.403183-0.520863-0.728594-0.919952-0.933255l-34.650171-17.654079c3.091408-2.02717 6.317892-4.279467 9.628288-6.723122 0.258896-0.189312 0.469698-0.437975 0.61603-0.724501 1.596358-3.133364 1.692548-5.568832 0.289596-7.241938-1.164522-1.388627-3.137457-1.964748-6.031367-1.763157-0.378623 0.026606-0.741897 0.156566-1.049912 0.375553-14.007015 9.892301-26.149567 16.842597-36.086893 20.657482-0.367367 0.13917-0.684592 0.381693-0.919952 0.697895-2.930749 3.957125-2.137687 6.464225-0.955768 7.872295 1.071402 1.279133 2.874467 2.092661 5.51255 2.487657 0.370437 0.055259 0.74906 0.010233 1.094938-0.13303 6.463202-2.662643 12.256138-5.3918 17.23657-8.121981l10.600429 5.402033c-1.102101 5.191232-2.656503 10.583033-4.627391 16.053628-0.096191 0.270153-0.137123 0.555655-0.11768 0.843204 0.153496 2.223644 0.680499 3.842515 1.609661 4.949732 1.025353 1.224898 3.438309 2.849908 8.04114-0.031722 0.38374-0.239454 0.679475-0.599657 0.839111-1.025353 2.161223-5.747911 3.713578-10.946306 4.63353-15.498996l19.149129 9.757225c0.400113 0.204661 0.853437 0.272199 1.292436 0.195451 0.592494-0.104377 1.131777-0.243547 1.636267-0.408299-2.035356 1.063215-4.076852 2.068102-6.128581 2.966565-0.329505 0.146333-0.615007 0.372483-0.830925 0.663102-2.39863 3.238764-2.300392 5.506411-1.537006 6.994298-0.841158 0.019443-1.739621 0.112564-2.711761 0.313132-0.056282 0.011256-0.11461 0.026606-0.171915 0.044002-22.093181 6.591115-45.917796 8.03193-70.808696 4.279467-0.453325-0.068562-0.919952 0.017396-1.321088 0.243547-3.13541 1.753947-4.759397 3.470031-5.113461 5.398964-0.160659 0.886183-0.112564 2.235924 1.044796 3.615341 0 0 0 0 0 0 0.681522 0.810459 1.661849 1.538029 3.001357 2.220574 0.198521 0.100284 0.409322 0.168846 0.630357 0.200568 9.315156 1.406023 18.486026 2.093684 27.482935 2.077312C266.216689 389.408941 265.56996 390.048507 265.156544 390.862036L265.156544 390.862036zM273.657148 388.781654c13.226233-0.538259 26.051329-2.625804 38.361703-6.282077 1.306762-0.125867 2.196015 0.079818 2.6432 0.613984 0.160659 0.190335 0.289596 0.444115 0.39295 0.75213 0.021489 0.063445 0.046049 0.128937 0.074701 0.190335 5.740748 13.008268 12.050454 24.858154 18.879999 35.478026L273.657148 388.781654 273.657148 388.781654zM334.386278 485.597677c-0.201591-0.400113-0.51984-0.727571-0.918929-0.932232l-30.631648-15.609513c12.42703-9.676383 23.542182-18.98847 33.070186-27.707039 0.349971-0.319272 0.578168-0.74906 0.648776-1.216711 0.457418-3.045359 0.096191-5.220908-1.106194-6.653537-1.010003-1.201361-3.037173-2.364861-6.964622-1.087774-0.292666 0.093121-0.558725 0.25071-0.780783 0.460488-8.465812 7.988951-20.74651 18.171871-36.507472 30.277584l-35.161824-17.917068c1.394766-0.358157 2.859118-1.299599 4.442172-2.857071 0.296759-0.293689 0.500397-0.668219 0.578168-1.078565 2.263553-11.627828 4.198625-24.457018 5.745864-38.128389 0.044002-0.39295-0.026606-0.788969-0.198521-1.14508-0.396019-0.805342-0.841158-1.502213-1.321088-2.073218-1.346671-1.603521-2.827395-2.033309-3.835352-2.110057-1.805112-0.141216-3.654226 0.641613-5.653767 2.39556-0.396019 0.347924-0.64673 0.839111-0.695848 1.367137-1.165546 12.825097-3.077082 25.518187-5.679349 37.721113-0.076748 0.357134-0.059352 0.725524 0.053212 1.072425 0.233314 0.712221 0.493234 1.337461 0.786922 1.890047l-29.293163-14.925944c-0.336668-0.167822-0.709151-0.245593-1.081635-0.220011-3.164063 0.217964-5.148253 1.195222-6.062066 2.990101-0.914836 1.794879-0.538259 3.972475 1.14508 6.65763 0.051165 0.082888 0.106424 0.160659 0.167822 0.234337 0.177032 0.211824 0.398066 0.385786 0.644683 0.51063l112.506377 57.32766c0.401136 0.203638 0.854461 0.273223 1.297552 0.193405 2.657526-0.464581 4.440126-1.555425 5.298679-3.239787C335.736019 490.105341 335.571267 488.021889 334.386278 485.597677L334.386278 485.597677zM294.385239 415.920758c0.058328-0.393973 0.004093-0.798179-0.162706-1.161453-0.566912-1.251503-1.159406-2.234901-1.810229-3.012613-1.472538-1.753947-3.01466-2.084475-4.047176-2.051729-1.833765 0.057305-3.559059 1.214664-5.28026 3.544733-0.206708 0.281409-0.340761 0.61296-0.38681 0.960885-1.528819 11.811-3.803629 24.332175-6.763031 37.2156-0.101307 0.440022-0.056282 0.903579 0.130983 1.313925 0.563842 1.25355 1.156336 2.238994 1.807159 3.01466 1.470491 1.750877 3.010567 2.080382 4.041036 2.048659 1.834788-0.056282 3.565199-1.212618 5.290493-3.539616 0.176009-0.236384 0.298805-0.509606 0.361227-0.800225C290.181497 441.194374 292.474726 428.566776 294.385239 415.920758L294.385239 415.920758zM501.994624 436.594613c0.169869-0.334621 0.24457-0.709151 0.221034-1.084705-0.157589-2.217505-0.683569-3.833305-1.610684-4.938476-1.029446-1.225921-3.439332-2.851954-8.03807 0.023536-0.319272 0.199545-0.577145 0.478907-0.747014 0.814552l-44.094264 86.541005c-0.146333 0.286526-0.223081 0.601704-0.225127 0.923022-0.021489 2.707668 0.444115 4.533246 1.461281 5.746888l0 0c1.27197 1.51654 3.749394 2.616594 8.324596-0.762363 0.25685-0.190335 0.468674-0.436952 0.61296-0.724501L501.994624 436.594613 501.994624 436.594613zM536.693914 443.376063c0.170892-0.335644 0.24764-0.711198 0.222057-1.084705-0.156566-2.219551-0.681522-3.835352-1.610684-4.942569-1.027399-1.223874-3.438309-2.848884-8.03807 0.025583-0.318248 0.197498-0.577145 0.479931-0.747014 0.812505l-55.665811 109.259426c-0.023536 0.046049-0.046049 0.093121-0.067538 0.145309-1.173732 2.814092-2.648316 4.348028-4.513804 4.680603-2.669806 0.480954-7.881504-1.116427-17.539468-11.461029-0.258896-0.278339-0.586354-0.475837-0.950651-0.578168-2.52859-0.712221-4.554736-0.471744-6.02011 0.719384-1.619894 1.316995-2.297322 3.539616-2.071172 6.797823 0.027629 0.440022 0.196475 0.853437 0.477884 1.189082 0.034792 0.039909 0.072655 0.080841 0.110517 0.12075 11.836583 12.014638 21.204951 17.198707 28.644387 15.84692 4.695952-0.854461 8.413624-4.28663 11.003612-10.112312L536.693914 443.376063 536.693914 443.376063zM438.217065 527.470343c-0.242524-0.384763-0.605797-0.684592-1.036609-0.844228l-36.804231-13.608949 13.438057-26.375717 28.448936 14.494109c0.285502 0.146333 0.599657 0.224104 0.920976 0.226151 2.287089 0.020466 3.969405-0.681522 4.998851-2.083451 1.211595-1.647523 1.306762-3.974521 0.294712-7.111978-0.167822-0.523933-0.539282-0.957815-1.028423-1.206478l-28.450982-14.494109 11.993149-23.537066 19.453051 7.584746-1.466398 9.753131c-0.082888 0.541329 0.055259 1.094938 0.379647 1.534959 2.415003 3.279696 4.593622 4.659113 6.825452 4.40431 1.734504-0.194428 3.171226-1.387603 4.269233-3.545756 0.083911-0.160659 0.143263-0.330528 0.181125-0.50756 2.650363-12.43931 3.331885-28.337395 2.023076-47.25628-0.032746-0.451278-0.204661-0.893346-0.509606-1.219781-1.834788-2.090615-3.743254-3.027963-5.66707-2.788509-2.087545 0.26299-3.836375 1.827625-5.342682 4.783956-0.174985 0.343831-0.25071 0.731664-0.217964 1.116427 0.580215 6.696516 0.733711 14.33652 0.458441 22.745027l-38.624692-17.368576c11.295254-5.744841 21.878287-13.346983 31.528064-22.658046l41.951461 21.375843c0.333598 0.169869 0.708128 0.246617 1.081635 0.218988 3.15997-0.221034 5.139044-1.198292 6.052856-2.991124 0.912789-1.793856 0.542352-3.970428-1.136893-6.656607-0.199545-0.315178-0.479931-0.575098-0.813528-0.74599l-75.726705-38.58376c-0.334621-0.169869-0.708128-0.246617-1.081635-0.221034-3.164063 0.216941-5.14416 1.195222-6.057973 2.991124-0.915859 1.795902-0.542352 3.972475 1.143033 6.658653 0.201591 0.315178 0.480954 0.574075 0.812505 0.744967l23.331381 11.886725c-9.82374 8.93858-20.830421 16.260335-32.691563 21.750373-4.408403 1.819438-6.610558 3.597945-7.142677 5.763261-0.223081 0.910743-0.234337 2.297322 0.981351 3.745301 0.711198 0.849344 1.771343 1.623987 3.320629 2.411933l22.379707 10.150174-11.858072 23.276123-28.449959-14.496156c-0.398066-0.200568-0.852414-0.270153-1.292436-0.194428-2.662643 0.461511-4.448312 1.550309-5.308913 3.238764-0.861624 1.689479-0.690732 3.774977 0.499373 6.203282 0.197498 0.399089 0.518816 0.724501 0.916882 0.928139l28.448936 14.496156-14.19121 27.852348L354.927103 495.610728c-0.240477-0.093121-0.49528-0.14224-0.74906-0.144286-1.322112-0.011256-5.348821-0.040932-6.756891 2.719948-1.407046 2.758834 0.986467 6.000668 1.771343 7.065929 0.022513 0.034792 0.051165 0.068562 0.077771 0.101307 0.224104 0.265036 0.509606 0.469698 0.833995 0.596588 22.340821 8.705266 50.04172 19.150152 82.334193 31.049157 0.276293 0.099261 0.567935 0.14224 0.859577 0.121773 3.15997-0.223081 5.136997-1.201361 6.051833-2.996241C440.263677 532.332071 439.89324 530.154475 438.217065 527.470343L438.217065 527.470343zM632.912325 601.588411c-0.154519-2.220574-0.679475-3.833305-1.609661-4.939499-1.026376-1.224898-3.439332-2.849908-8.037047 0.023536-0.339738 0.211824-0.611937 0.51677-0.780783 0.87902-9.964956 21.413706-14.999622 25.830295-17.110703 26.556842-0.239454 0.081864-0.421602 0.110517-0.567935 0.104377-4.724605-6.900154-6.921643-19.992333-6.534833-38.944987 16.774035-10.299577 30.952966-22.187325 42.157145-35.349089 0.277316-0.326435 0.447185-0.729617 0.483001-1.157359 0.218988-2.419096-0.187265-4.206812-1.243317-5.464455-1.51961-1.812275-4.009314-2.175549-7.393387-1.074472-0.373507 0.121773-0.704035 0.345877-0.955768 0.647753-8.432043 10.212596-19.035542 19.513426-31.56081 27.694759 3.432169-17.060561 9.340739-35.577287 17.585517-55.165414l33.68724 17.173125c0.004093 3.327792 0.154519 7.063883 0.456395 11.373025 0.021489 0.335644 0.12996 0.664126 0.309038 0.949628 1.76418 2.827395 3.65218 4.065596 5.721305 3.829212 1.89721-0.214894 3.514033-1.679245 4.937452-4.474918 0.138146-0.268106 0.214894-0.563842 0.225127-0.867764 0.457418-13.444197 0.001023-26.15673-1.357927-37.787628-0.063445-0.544399-0.340761-1.041726-0.773619-1.38351-2.140757-1.688455-4.193509-2.332115-6.098905-1.911536-1.87879 0.412392-3.439332 1.813299-4.638647 4.164856-0.177032 0.353041-0.251733 0.74599-0.213871 1.136893l1.147126 12.010545-28.460192-14.509459 6.965645-16.078187c0.134053-0.301875 0.189312-0.63752 0.164752-0.966001-0.154519-2.218528-0.681522-3.835352-1.608637-4.940522-1.027399-1.224898-3.439332-2.850931-8.039093 0.024559-0.356111 0.222057-0.635473 0.546446-0.802272 0.930185l-6.863315 15.84078-45.636387-23.25361c-5.508457-2.804882-10.4367-3.617387-14.657838-2.419096-4.27435 1.217734-7.785314 4.470825-10.43363 9.668197l-18.22099 35.766598c-9.728572 20.831444-22.753213 36.69883-38.717813 47.166229-0.298805 0.195451-0.544399 0.468674-0.710175 0.788969-1.595334 3.134387-1.691525 5.568832-0.292666 7.238868 1.163499 1.385557 3.13848 1.962701 6.031367 1.76418 0.280386-0.020466 0.552585-0.095167 0.803295-0.224104 9.976212-5.118578 19.271926-13.599739 27.789926-25.321712-0.515746 1.212618-0.779759 2.771113-0.792039 4.690836-0.004093 0.437975 0.12996 0.865717 0.38681 1.220804 11.20418 15.59007 20.648272 22.896476 28.936029 22.372543 4.754281-0.292666 8.922207-3.182482 12.419867-8.643867l18.140149-30.264281c4.387937-7.197936 4.490268-13.376659 0.300852-18.371416-1.641383-1.954515-3.978614-3.713578-6.944156-5.225001l-26.284643-13.394055 6.780427-13.302981c1.204431-2.362814 2.636037-3.829212 4.263094-4.359284 1.629103-0.528026 3.65218-0.185218 6.018064 1.019213l45.86663 23.370267c-10.413164 24.086581-17.23964 46.208415-20.323884 65.774029-17.098423 5.950526-35.629475 8.367575-55.101969 7.167237-0.333598-0.019443-0.667196 0.041956-0.974188 0.180102-2.905166 1.307785-4.5312 2.862187-4.959965 4.751211-0.240477 1.031493-0.201591 2.6432 1.314948 4.452405 0.545422 0.651846 1.242294 1.289366 2.119267 1.939165 0.326435 0.239454 0.717338 0.382717 1.119497 0.406253 21.048385 1.199315 39.918151-0.916882 56.154951-6.291287-0.190335 19.446911 2.742461 34.012651 8.725732 43.327808 0.076748 0.12075 0.166799 0.234337 0.267083 0.333598 4.178159 4.231371 8.347109 5.708002 12.398378 4.3951 7.164167-2.328022 15.288195-13.462616 24.833595-34.041304C632.87344 602.285283 632.936885 601.935312 632.912325 601.588411L632.912325 601.588411zM520.11226 548.630269c-0.217964 0.132006-0.423649 0.277316-0.613984 0.442068 4.89038-7.011694 9.516748-15.111163 13.863752-24.272823l5.675256-11.139711 24.12035 12.289907c1.765203 0.89744 3.091408 1.86958 3.943822 2.883677 1.12973 1.347694 2.098801 3.382027-0.527003 7.265474l-17.046235 28.105105c-0.027629 0.045025-0.052189 0.086981-0.074701 0.13303-1.437745 2.823302-2.859118 2.987031-3.325745 3.039219-1.556449 0.177032-5.174859-0.734734-11.957333-8.813736-2.034333-2.427282-4.250814-5.378497-6.583952-8.769734-0.198521-0.281409-0.459464-0.51063-0.76748-0.668219C524.106224 547.739992 521.848811 547.57217 520.11226 548.630269L520.11226 548.630269zM694.013939 642.015146c3.136433-1.762133 4.76349-3.478218 5.112438-5.40715 0.162706-0.88516 0.112564-2.236947-1.042749-3.611248-0.680499-0.811482-1.661849-1.535983-3.000334-2.216481-0.321318-0.164752-0.676405-0.240477-1.039679-0.225127-5.764284 0.279363-13.734816 0.248663-23.735587-0.091074l39.486316-77.488839 19.793812 10.087753c0.399089 0.201591 0.853437 0.271176 1.293459 0.193405 2.657526-0.464581 4.439102-1.556449 5.299703-3.240811 0.860601-1.686409 0.695848-3.77293-0.49221-6.196119-0.194428-0.398066-0.518816-0.729617-0.918929-0.934279l-45.433772-23.150256c-0.399089-0.201591-0.850367-0.268106-1.290389-0.192382-2.664689 0.458441-4.452405 1.549286-5.311982 3.236718-0.861624 1.687432-0.691755 3.774977 0.50142 6.202259 0.196475 0.399089 0.518816 0.725524 0.913812 0.927115l15.468296 7.882528-41.955554 82.343403c-6.423293-0.743944-13.208836-1.650593-20.200064-2.707668-0.39295-0.059352-0.794086-0.004093-1.156336 0.159636-2.908236 1.305739-4.530177 2.861164-4.960988 4.748141-0.237407 1.032516-0.200568 2.64627 1.314948 4.454452l0 0c0.548492 0.653893 1.239224 1.285273 2.12029 1.938142 0.26913 0.198521 0.586354 0.331551 0.920976 0.381693 17.775852 2.670829 37.07336 3.740184 57.357336 3.170203C693.393815 642.271996 693.722296 642.177851 694.013939 642.015146L694.013939 642.015146zM753.810836 691.00593c9.362228-9.229199 24.059975-34.491559 44.924165-77.235059 4.562922-7.328919 2.39249-12.600993-0.23843-15.738449-1.726318-2.056845-4.267187-3.946892-7.553023-5.622044l-21.956058-11.186783 8.429996-16.553001c0.171915-0.333598 0.245593-0.707105 0.223081-1.079588-0.157589-2.220574-0.682545-3.836375-1.611707-4.943592-1.026376-1.221828-3.436262-2.847861-8.040117 0.024559-0.317225 0.198521-0.574075 0.480954-0.74599 0.813528l-8.429996 16.551978-25.203008-12.842493c-0.399089-0.202615-0.850367-0.271176-1.293459-0.195451-2.664689 0.460488-4.450359 1.551332-5.310959 3.238764-0.859577 1.688455-0.691755 3.773953 0.502443 6.200212 0.193405 0.400113 0.515746 0.726547 0.914836 0.929162l25.164123 12.822027c-22.594601 41.548278-53.637618 63.694671-92.298126 65.837474-0.345877 0.019443-0.686638 0.122797-0.979304 0.312108-2.295276 1.431605-3.540639 2.939959-3.805676 4.609994-0.137123 0.874927-0.059352 2.207271 1.100054 3.587712 0.741897 0.88516 1.838881 1.690502 3.351328 2.461051 0.326435 0.167822 0.694825 0.242524 1.061169 0.221034 43.089377-2.569522 77.314877-26.736944 101.749382-71.839165l20.912285 10.653641c1.736551 0.884137 3.007497 1.799996 3.777023 2.716878 0.865717 1.031493 1.436722 2.299369-0.23536 4.562922-0.076748 0.103354-0.141216 0.210801-0.196475 0.323365-18.577101 38.216393-32.893154 62.779835-42.528606 72.980151-3.178389 3.246951-6.564509 4.78805-10.358929 4.705162-6.605442-0.13917-14.504342-5.26491-23.470551-15.240099-0.245593-0.272199-0.562818-0.479931-0.913812-0.589424-3.070942-0.972141-5.303796-0.772596-6.829546 0.602727-1.573845 1.421372-1.994424 3.76986-1.289366 7.178493 0.075725 0.370437 0.252757 0.714268 0.511653 0.992607 6.598278 7.068999 14.420431 12.935614 23.252587 17.438161 0.100284 0.050142 0.204661 0.091074 0.314155 0.127913C736.840326 701.030237 745.957984 698.734962 753.810836 691.00593L753.810836 691.00593z" /></svg>