<?xml version="1.0" standalone="no"?><!DOCTYPE svg PUBLIC "-//W3C//DTD SVG 1.1//EN" "http://www.w3.org/Graphics/SVG/1.1/DTD/svg11.dtd"><svg class="icon" width="64px" height="64.00px" viewBox="0 0 1024 1024" version="1.1" xmlns="http://www.w3.org/2000/svg"><path fill="#8a8a8a" d="M512.672914 0C525.429029 10.386286 536.956343 21.767314 551.936 30.3104 634.645943 77.4144 796.818286 99.064686 921.6 87.771429 921.6 218.053486 919.200914 416.3584 919.200914 546.640457 919.200914 599.888457 928.036571 686.6944 911.7696 726.4256 876.192914 813.407086 780.960914 882.132114 706.911086 933.390629 665.629257 961.974857 622.474971 986.346057 572.094171 1006.562743 555.914971 1013.057829 529.700571 1027.335314 506.294857 1023.268571 395.761371 1004.105143 235.666286 886.959543 176.186514 814.226286 151.844571 784.471771 122.002286 757.1456 109.304686 715.9808 96.899657 675.810743 105.0624 586.313143 105.0624 536.195657 105.0624 409.365943 102.4 214.571886 102.4 87.771429 236.895086 100.820114 456.469943 74.371657 512.672914 0ZM160.914286 146.285714C161.265371 302.723657 160.5632 545.733486 160.914286 702.171429 182.184229 768.321829 297.311086 836.666514 352.373029 874.847086 387.306057 899.072 422.999771 920.722286 464.896 938.627657 476.832914 943.7184 499.390171 959.166171 516.9152 955.333486 605.769143 935.965257 745.325714 834.384457 795.004343 773.471086 814.167771 749.9776 854.922971 735.700114 863.085714 702.171429 863.085714 546.435657 863.085714 302.021486 863.085714 146.285714 727.157029 147.982629 599.771429 129.024 512.672914 84.670171 445.410743 134.465829 281.102629 146.197943 160.914286 146.285714ZM741.931886 307.287771C768.380343 312.173714 788.8896 336.749714 769.550629 362.7008 696.32 434.468571 623.060114 506.2656 549.829486 578.033371 535.903086 591.725714 495.616 644.885943 468.085029 638.654171 448.043886 634.119314 434.205257 612.586057 421.390629 599.976229 388.125257 567.559314 354.859886 535.171657 321.594514 502.754743 310.8864 492.222171 292.103314 471.712914 305.678629 450.501486 313.9584 437.540571 337.364114 428.938971 354.5088 440.056686 394.474057 479.407543 434.468571 518.787657 474.463086 558.167771 557.231543 476.628114 640.058514 395.088457 722.826971 313.578057 729.205029 311.471543 735.583086 309.394286 741.931886 307.287771Z" /></svg>