<?xml version="1.0" standalone="no"?><!DOCTYPE svg PUBLIC "-//W3C//DTD SVG 1.1//EN" "http://www.w3.org/Graphics/SVG/1.1/DTD/svg11.dtd"><svg class="icon" width="64px" height="64.00px" viewBox="0 0 1024 1024" version="1.1" xmlns="http://www.w3.org/2000/svg"><path fill="#8a8a8a" d="M605.323474 622.770461c-74.495053 0-144.38533-28.958929-197.084441-81.658039-52.596782-52.596782-81.658039-122.589387-81.658039-197.084441s28.958929-144.38533 81.658039-197.084441S530.930748 65.387829 605.323474 65.387829c74.495053 0 144.38533 28.958929 197.084441 81.658039 52.596782 52.596782 81.658039 122.589387 81.658039 197.084441 0 74.495053-28.958929 144.38533-81.658039 197.084441l0 0C749.811132 593.811532 679.818527 622.770461 605.323474 622.770461zM605.323474 120.645148c-59.65744 0-115.835715 23.22854-157.995003 65.490157-42.159288 42.159288-65.490157 98.337564-65.490157 157.995003s23.22854 115.835715 65.490157 157.995003 98.337564 65.490157 157.995003 65.490157c59.65744 0 115.835715-23.22854 157.995003-65.490157s65.490157-98.337564 65.490157-157.995003-23.22854-115.835715-65.490157-157.995003C721.159189 143.873688 665.083242 120.645148 605.323474 120.645148zM125.505746 854.646547c-7.060658 0-14.121315-2.660538-19.544719-8.083941-10.744479-10.744479-10.744479-28.24263 0-39.089437l289.282302-289.282302c10.744479-10.744479 28.24263-10.744479 39.089437 0 10.744479 10.744479 10.744479 28.24263 0 39.089437L145.050465 846.562606C139.627061 851.98601 132.566404 854.646547 125.505746 854.646547zM412.639153 745.666833c-7.060658 0-14.121315-2.660538-19.544719-8.083941l-89.025682-89.025682c-10.744479-10.744479-10.744479-28.24263 0-39.089437 10.744479-10.744479 28.24263-10.744479 39.089437 0l89.025682 89.025682c10.744479 10.744479 10.744479 28.24263 0 39.089437C426.760468 742.903967 419.69981 745.666833 412.639153 745.666833zM345.818727 901.410613c-7.060658 0-14.121315-2.660538-19.544719-8.083941L192.735485 759.788148c-10.744479-10.744479-10.744479-28.24263 0-39.089437 10.744479-10.744479 28.24263-10.744479 39.089437 0l133.538523 133.538523c10.744479 10.744479 10.744479 28.24263 0 39.089437C360.04237 898.750075 352.879384 901.410613 345.818727 901.410613z" /></svg>