<?xml version="1.0" standalone="no"?><!DOCTYPE svg PUBLIC "-//W3C//DTD SVG 1.1//EN" "http://www.w3.org/Graphics/SVG/1.1/DTD/svg11.dtd"><svg class="icon" width="32px" height="32.00px" viewBox="0 0 1024 1024" version="1.1" xmlns="http://www.w3.org/2000/svg"><path fill="#ffffff" d="M511.829333 975.725714C242.517333 975.725714 24.210286 757.369905 24.210286 488.106667 24.210286 218.794667 242.517333 0.487619 511.829333 0.487619 781.141333 0.487619 999.448381 218.794667 999.448381 488.106667 999.448381 757.369905 781.141333 975.725714 511.829333 975.725714ZM509.098667 91.428571C290.304 91.428571 120.56381 268.824381 120.56381 487.619048 120.56381 706.413714 290.304 877.714286 509.098667 877.714286 727.942095 877.714286 905.337905 706.413714 905.337905 487.619048 905.337905 268.824381 727.942095 91.428571 509.098667 91.428571ZM707.267048 536.380952C707.267048 536.380952 560.932571 536.380952 560.932571 536.380952 560.932571 536.380952 560.932571 682.715429 560.932571 682.715429 560.932571 709.632 539.136 731.428571 512.219429 731.428571 512.219429 731.428571 512.121905 731.428571 512.121905 731.428571 485.205333 731.428571 463.408762 709.632 463.408762 682.715429 463.408762 682.715429 463.408762 536.380952 463.408762 536.380952 463.408762 536.380952 317.074286 536.380952 317.074286 536.380952 290.157714 536.380952 268.361143 514.584381 268.361143 487.66781 268.361143 487.66781 268.361143 487.570286 268.361143 487.570286 268.361143 460.653714 290.157714 438.857143 317.074286 438.857143 317.074286 438.857143 463.408762 438.857143 463.408762 438.857143 463.408762 438.857143 463.408762 292.522667 463.408762 292.522667 463.408762 265.606095 485.205333 243.809524 512.121905 243.809524 512.121905 243.809524 512.219429 243.809524 512.219429 243.809524 539.136 243.809524 560.932571 265.606095 560.932571 292.522667 560.932571 292.522667 560.932571 438.857143 560.932571 438.857143 560.932571 438.857143 707.267048 438.857143 707.267048 438.857143 734.183619 438.857143 755.98019 460.653714 755.98019 487.570286 755.98019 487.570286 755.98019 487.66781 755.98019 487.66781 755.98019 514.584381 734.183619 536.380952 707.267048 536.380952Z" /></svg>