<?xml version="1.0" standalone="no"?><!DOCTYPE svg PUBLIC "-//W3C//DTD SVG 1.1//EN" "http://www.w3.org/Graphics/SVG/1.1/DTD/svg11.dtd"><svg class="icon" width="32px" height="32.00px" viewBox="0 0 1024 1024" version="1.1" xmlns="http://www.w3.org/2000/svg"><path fill="#ffffff" d="M917.333333 1013.333333H106.666667c-36.266667 0-64-27.733333-64-64v-533.333333h938.666666v533.333333c0 36.266667-27.733333 64-64 64z m-640-490.666666h-42.666666c-36.266667 0-64 27.733333-64 64s27.733333 64 64 64h42.666666c36.266667 0 64-27.733333 64-64s-27.733333-64-64-64z m0 213.333333h-42.666666c-36.266667 0-64 27.733333-64 64s27.733333 64 64 64h42.666666c36.266667 0 64-27.733333 64-64s-27.733333-64-64-64z m256-213.333333h-42.666666c-36.266667 0-64 27.733333-64 64s27.733333 64 64 64h42.666666c36.266667 0 64-27.733333 64-64s-27.733333-64-64-64z m0 213.333333h-42.666666c-36.266667 0-64 27.733333-64 64s27.733333 64 64 64h42.666666c36.266667 0 64-27.733333 64-64s-27.733333-64-64-64z m256-213.333333h-42.666666c-36.266667 0-64 27.733333-64 64s27.733333 64 64 64h42.666666c36.266667 0 64-27.733333 64-64s-27.733333-64-64-64z m0 213.333333h-42.666666c-36.266667 0-64 27.733333-64 64s27.733333 64 64 64h42.666666c36.266667 0 64-27.733333 64-64s-27.733333-64-64-64zM42.666667 181.333333c0-36.266667 27.733333-64 64-64h128v128c0 36.266667 27.733333 64 64 64s64-27.733333 64-64v-128h298.666666v128c0 36.266667 27.733333 64 64 64s64-27.733333 64-64v-128h128c36.266667 0 64 27.733333 64 64v192H42.666667v-192z m682.666666 85.333334c-12.8 0-21.333333-8.533333-21.333333-21.333334v-213.333333c0-12.8 8.533333-21.333333 21.333333-21.333333s21.333333 8.533333 21.333334 21.333333v213.333333c0 12.8-8.533333 21.333333-21.333334 21.333334z m-426.666666 0c-12.8 0-21.333333-8.533333-21.333334-21.333334v-213.333333c0-12.8 8.533333-21.333333 21.333334-21.333333s21.333333 8.533333 21.333333 21.333333v213.333333c0 12.8-8.533333 21.333333-21.333333 21.333334z"  /></svg>