<?xml version="1.0" standalone="no"?><!DOCTYPE svg PUBLIC "-//W3C//DTD SVG 1.1//EN" "http://www.w3.org/Graphics/SVG/1.1/DTD/svg11.dtd"><svg t="1527213084075" class="icon" style="" viewBox="0 0 1024 1024" version="1.1" xmlns="http://www.w3.org/2000/svg" p-id="2004" xmlns:xlink="http://www.w3.org/1999/xlink" width="32" height="32"><defs><style type="text/css"></style></defs><path d="M645.248 158.912 109.248 158.912c-26.496 0-48-21.504-48-48s21.504-48 48-48l536 0c26.496 0 48 21.504 48 48S671.744 158.912 645.248 158.912z" p-id="2005" fill="#ffffff"></path><path d="M109.248 970.048c-26.496 0-48-21.504-48-48L61.248 110.912c0-26.496 21.504-48 48-48s48 21.504 48 48l0 811.136C157.248 948.544 135.744 970.048 109.248 970.048z" p-id="2006" fill="#ffffff"></path><path d="M909.248 970.048c-26.496 0-48-21.504-48-48L861.248 337.856c0-26.496 21.504-48 48-48s48 21.504 48 48l0 584.192C957.248 948.544 935.744 970.048 909.248 970.048z" p-id="2007" fill="#ffffff"></path><path d="M308.416 751.744c-12.288 0-24.576-4.672-33.92-14.08-18.752-18.752-18.752-49.152 0-67.904l624.512-624.512c18.752-18.752 49.152-18.752 67.904 0s18.752 49.152 0 67.904L342.4 737.664C332.992 747.072 320.768 751.744 308.416 751.744z" p-id="2008" fill="#ffffff"></path><path d="M909.248 970.048l-800 0c-26.496 0-48-21.504-48-48s21.504-48 48-48l800 0c26.496 0 48 21.504 48 48S935.744 970.048 909.248 970.048z" p-id="2009" fill="#ffffff"></path></svg>