<?xml version="1.0" standalone="no"?><!DOCTYPE svg PUBLIC "-//W3C//DTD SVG 1.1//EN" "http://www.w3.org/Graphics/SVG/1.1/DTD/svg11.dtd"><svg class="icon" width="32px" height="32.00px" viewBox="0 0 1024 1024" version="1.1" xmlns="http://www.w3.org/2000/svg"><path fill="#ffffff" d="M512 0C230.4 0 0 230.4 0 512s230.4 512 512 512 512-230.4 512-512S793.6 0 512 0z m0 947.2C273.066667 947.2 76.8 750.933333 76.8 512S273.066667 76.8 512 76.8 947.2 273.066667 947.2 512 750.933333 947.2 512 947.2zM558.933333 512l140.8-140.8c12.8-12.8 12.8-34.133333 0-46.933333-12.8-12.8-34.133333-12.8-46.933333 0L512 465.066667 371.2 324.266667c-12.8-12.8-34.133333-12.8-46.933333 0-12.8 12.8-12.8 34.133333 0 46.933333l140.8 140.8-140.8 140.8c-12.8 12.8-12.8 34.133333 0 46.933333 8.533333 8.533333 17.066667 8.533333 25.6 8.533334 8.533333 0 17.066667-4.266667 25.6-8.533334l140.8-140.8 140.8 140.8c8.533333 8.533333 17.066667 8.533333 25.6 8.533334 8.533333 0 17.066667-4.266667 25.6-8.533334 12.8-12.8 12.8-34.133333 0-46.933333L558.933333 512z" /></svg>