<?xml version="1.0" standalone="no"?><!DOCTYPE svg PUBLIC "-//W3C//DTD SVG 1.1//EN" "http://www.w3.org/Graphics/SVG/1.1/DTD/svg11.dtd"><svg class="icon" width="32px" height="32.00px" viewBox="0 0 1024 1024" version="1.1" xmlns="http://www.w3.org/2000/svg"><path fill="#ffffff" d="M972.850551 73.480548l0 778.801509c0 14.675234-10.880815 26.573215-24.301476 26.573215L296.137139 878.855272c-13.422707 0-24.302499-11.897981-24.302499-26.573215L271.83464 688.085414l35.051307 0 0 125.256772c0 13.20679 9.790994 23.915689 21.871123 23.915689l587.17105 0c12.079106 0 21.871123-10.708899 21.871123-23.915689L937.799244 112.421442c0-13.208836-9.792017-23.916712-21.871123-23.916712L328.757071 88.50473c-12.08013 0-21.871123 10.707876-21.871123 23.916712l0 379.199415 0 3.665483-35.051307 0 0-2.130524L271.83464 73.480548c0-14.676257 10.879792-26.573215 24.302499-26.573215l652.411937 0C961.969737 46.907333 972.850551 58.805314 972.850551 73.480548zM973.366298 95.124498l0 700.92279c0 13.20679-6.954389 25.849738-15.532765 28.236088L540.857746 940.291506c-8.578376 2.38635-15.532765-6.387477-15.532765-19.59529L525.324982 219.773426c0-13.207813 6.954389-25.850761 15.532765-28.237111L957.833533 75.529207C966.411909 73.142857 973.366298 81.915661 973.366298 95.124498zM80.27786 591.514985c0 10.522658 3.941775 20.068058 10.343579 27.094078l16.053628 9.787924 89.134063 54.348816c12.048407 7.344269 27.457352 2.986007 34.412764-9.740852l5.328355-9.743922c6.957459-12.727882 2.828418-28.997428-9.219989-36.346813l-5.402033-3.294023 217.268372 0c13.914918 0 25.193799-11.912307 25.193799-26.605961l0-11.253298c0-14.693654-11.278881-26.605961-25.193799-26.605961l-217.96422 0 5.194302-3.168156c12.04943-7.348362 16.177448-23.61893 9.221012-36.344766l-5.327332-9.745968c-6.956436-12.725836-22.364357-17.08512-34.414811-9.738805l-88.566128 54.001915-14.143115 8.625448C84.869435 569.928341 80.27786 580.153216 80.27786 591.514985zM112.365672 552.785915c0.723477-0.103354 1.447978-0.197498 2.184759-0.254803C113.814674 552.588417 113.08915 552.682561 112.365672 552.785915z" /></svg>