<?xml version="1.0" standalone="no"?><!DOCTYPE svg PUBLIC "-//W3C//DTD SVG 1.1//EN" "http://www.w3.org/Graphics/SVG/1.1/DTD/svg11.dtd"><svg t="1527138643917" class="icon" style="" viewBox="0 0 1024 1024" version="1.1" xmlns="http://www.w3.org/2000/svg" p-id="10268" xmlns:xlink="http://www.w3.org/1999/xlink" width="32" height="32"><defs><style type="text/css"></style></defs><path d="M261.418406 261.418918 377.072473 261.418918 377.072473 377.070938 261.418406 377.070938 261.418406 261.418918Z" p-id="10269" fill="#ffffff"></path><path d="M261.418406 646.930085 377.072473 646.930085 377.072473 762.581082 261.418406 762.581082 261.418406 646.930085Z" p-id="10270" fill="#ffffff"></path><path d="M158.617066 216.443587l0 263.429715 321.256748 0L479.873814 158.616554l-263.429715 0C184.317401 158.616554 158.617066 184.317912 158.617066 216.443587L158.617066 216.443587zM422.04678 422.046269l-205.602681 0 0-205.602681 205.602681 0L422.04678 422.046269 422.04678 422.046269z" p-id="10271" fill="#ffffff"></path><path d="M158.617066 807.556413c0 32.126698 25.700335 57.827033 57.827033 57.827033l263.429715 0L479.873814 544.127721l-321.256748 0L158.617066 807.556413 158.617066 807.556413zM216.444099 601.953731l205.602681 0 0 205.602681-205.602681 0L216.444099 601.953731 216.444099 601.953731z" p-id="10272" fill="#ffffff"></path><path d="M807.555901 216.442564l0 115.653043 57.827033 0L865.382934 216.442564c0-32.125675-25.700335-57.82601-57.827033-57.82601L749.728868 158.616554l0 57.82601L807.555901 216.442564 807.555901 216.442564z" p-id="10273" fill="#ffffff"></path><path d="M544.126186 479.873302 544.126186 274.268574 601.95322 274.268574 601.95322 479.873302 544.126186 479.873302Z" p-id="10274" fill="#ffffff"></path><path d="M627.651508 332.094584 627.651508 396.349003 691.903881 396.349003 691.903881 332.094584 749.728868 332.094584 749.728868 274.268574 691.903881 274.268574 691.903881 158.616554 627.651508 158.616554 627.651508 274.268574 627.651508 332.094584Z" p-id="10275" fill="#ffffff"></path><path d="M749.728868 479.873302 749.728868 422.048315 865.382934 422.048315 865.382934 479.873302 749.728868 479.873302Z" p-id="10276" fill="#ffffff"></path><path d="M749.728868 396.349003 749.728868 338.52197 807.555901 338.52197 807.555901 396.349003 749.728868 396.349003Z" p-id="10277" fill="#ffffff"></path><path d="M627.651508 479.873302 627.651508 422.048315 685.478542 422.048315 685.478542 479.873302 627.651508 479.873302Z" p-id="10278" fill="#ffffff"></path><path d="M544.126186 216.442564 544.126186 158.616554 601.95322 158.616554 601.95322 216.442564 544.126186 216.442564Z" p-id="10279" fill="#ffffff"></path><path d="M699.826901 549.05933c-85.985902 0-155.698836 69.702941-155.698836 155.698836 0 85.993896 69.712935 155.696838 155.698836 155.696838 85.9879 0 155.698836-69.702941 155.698836-155.696838C855.525738 618.762271 785.814802 549.05933 699.826901 549.05933zM648.02982 722.807928c1.832757 1.730826 8.302371 9.863313 13.089126 9.863313 4.910671 0 30.483532-27.291496 41.546032-39.533396l52.218796-60.417237c1.722832-1.830759 3.069919-3.007961 5.786077-3.089905 2.716158-0.08794 6.28374 0.941362 8.116497 2.660196l16.840582 16.62273c1.832757 1.726829 3.011958 4.155183 3.099898 6.863347 0.079946 2.720156-0.941362 5.210467-2.664194 7.043225l-95.017778 100.418117 0.137906 0.127913-20.208299 21.507418c-1.722832 1.830759-4.149187 3.005962-6.863347 3.087906-2.716158 0.095935-5.20647-0.931369-7.045223-2.6542l-57.35931-53.903653c-1.830759-1.714837-3.011958-4.143191-3.091904-6.859349-0.079946-2.722154 0.941362-5.210467 2.672188-7.051219l13.466869-14.33628c1.724831-1.824763 4.157181-3.011958 6.865345-3.091904 2.716158-0.079946 5.212466 0.94336 7.037229 2.658198L648.02982 722.807928z" p-id="10280" fill="#ffffff"></path></svg>