<?xml version="1.0" standalone="no"?><!DOCTYPE svg PUBLIC "-//W3C//DTD SVG 1.1//EN" "http://www.w3.org/Graphics/SVG/1.1/DTD/svg11.dtd"><svg t="1522722675609" class="icon" style="" viewBox="0 0 1024 1024" version="1.1" xmlns="http://www.w3.org/2000/svg" p-id="5593" xmlns:xlink="http://www.w3.org/1999/xlink" width="32" height="32"><defs><style type="text/css"></style></defs><path d="M285.866667 499.2c-8.533333-17.066667-25.6-21.333333-42.666667-12.8s-21.333333 25.6-12.8 42.666667c25.6 51.2 64 98.133333 110.933333 128 4.266667 4.266667 12.8 4.266667 17.066667 4.266666 8.533333 0 21.333333-4.266667 25.6-12.8 8.533333-12.8 8.533333-34.133333-8.533333-42.666666-38.4-29.866667-68.266667-64-89.6-106.666667z" fill="#ffffff" p-id="5594"></path><path d="M942.933333 904.533333l-174.933333-170.666666c68.266667-72.533333 106.666667-166.4 106.666667-273.066667 0-72.533333-21.333333-145.066667-59.733334-209.066667-8.533333-17.066667-29.866667-21.333333-42.666666-8.533333-17.066667 8.533333-21.333333 29.866667-8.533334 42.666667 34.133333 51.2 51.2 115.2 51.2 174.933333 0 183.466667-149.333333 332.8-332.8 332.8s-332.8-149.333333-332.8-332.8C145.066667 277.333333 294.4 128 477.866667 128c17.066667 0 34.133333-12.8 34.133333-34.133333 0-17.066667-12.8-34.133333-34.133333-34.133334-217.6 0-396.8 179.2-396.8 396.8 0 217.6 179.2 396.8 396.8 396.8 89.6 0 174.933333-29.866667 243.2-85.333333l174.933333 174.933333c4.266667 4.266667 12.8 8.533333 21.333333 8.533334s17.066667-4.266667 21.333334-8.533334c17.066667-4.266667 17.066667-25.6 4.266666-38.4z" fill="#ffffff" p-id="5595"></path></svg>