<?xml version="1.0" standalone="no"?><!DOCTYPE svg PUBLIC "-//W3C//DTD SVG 1.1//EN" "http://www.w3.org/Graphics/SVG/1.1/DTD/svg11.dtd"><svg class="icon" width="32px" height="32.00px" viewBox="0 0 1024 1024" version="1.1" xmlns="http://www.w3.org/2000/svg"><path fill="#ffffff" d="M512 393.61536c0-36.4544-367.54944-145.0496-488.72448 45.14816v493.39392a30.12096 30.12096 0 0 0 30.10048 30.10048H427.9296c9.216 20.23424 43.33056 35.15392 84.0704 35.15392 40.73984 0 74.8544-15.0528 84.0704-35.15392h374.5536a30.12608 30.12608 0 0 0 30.10048-30.1056V438.76864C879.54944 248.56576 512 357.15584 512 393.61536z m-415.55456 465.50016V457.05216s189.29152-122.3424 375.72608 0v402.06336s-191.23712-89.5232-375.72608 0z m831.104 0c-184.48384-89.3952-375.72096 0-375.72096 0V457.05216c186.43456-122.3424 375.72096 0 375.72096 0v402.06336zM34.304 320.0512c7.7824 15.3088 26.4704 21.40672 41.64608 13.6192l434.88256-220.81024 434.87744 220.81536a30.90432 30.90432 0 0 0 41.64608-13.6192l7.3984-14.5408a30.90944 30.90944 0 0 0-13.6192-41.64096l-455.63904-231.3216a30.976 30.976 0 0 0-14.66368-3.24608 29.7984 29.7984 0 0 0-14.65856 3.24096L40.52992 263.86944c-15.3088 7.78752-21.4016 26.4704-13.6192 41.6512L34.304 320.0512z" /></svg>